<?xml version="1.0" encoding="UTF-8" standalone="no"?>
<svg
   xmlns:dc="http://purl.org/dc/elements/1.1/"
   xmlns:cc="http://creativecommons.org/ns#"
   xmlns:rdf="http://www.w3.org/1999/02/22-rdf-syntax-ns#"
   xmlns:svg="http://www.w3.org/2000/svg"
   xmlns="http://www.w3.org/2000/svg"
   xmlns:sodipodi="http://sodipodi.sourceforge.net/DTD/sodipodi-0.dtd"
   xmlns:inkscape="http://www.inkscape.org/namespaces/inkscape"
   width="174.625mm"
   height="111.125mm"
   viewBox="0 0 174.625 111.125"
   version="1.1"
   id="svg8"
   inkscape:version="1.0.2-2 (e86c870879, 2021-01-15)"
   sodipodi:docname="LOGO.svg">
  <defs
     id="defs2">
    <clipPath
       clipPathUnits="userSpaceOnUse"
       id="clipPath560">
      <path
         id="path562"
         style="fill:#ff0000;fill-opacity:1;fill-rule:nonzero;stroke:none;stroke-width:3.77953"
         d="m 544.48438,165.43945 c -0.35453,0.0143 -0.15131,0.076 0.0898,0.13477 0.0241,-0.01 0.0583,-0.0244 0.0781,-0.0332 0.16224,-0.0719 0.20712,-0.11665 -0.16796,-0.10157 z m 0.16796,0.10157 c 0.004,0.0144 0.043,0.0454 0.082,0.0723 -0.0538,-0.0126 -0.10388,-0.0253 -0.16016,-0.0391 -0.43536,0.17891 -1.44895,0.52087 -0.73828,0.94726 h -0.004 c 0.18066,0.10836 0.4062,0.26141 0.61328,0.32422 0.003,9.5e-4 0.0102,0.003 0.0137,0.004 0.0628,0.0548 0.12461,0.10929 0.1875,0.16406 0.9419,0.23161 0.0772,0.0161 0.0723,0.0176 -0.0113,0.003 0.012,0.0187 0.0195,0.0273 0.008,0.0128 0.0161,0.0288 0.0312,0.0371 0.13039,0.0818 0.26506,0.15326 0.39844,0.23047 0.0138,-1.1e-4 0.0389,0.008 0.0566,0.01 0.0503,0.0298 0.0998,0.0613 0.1543,0.082 0.071,0.0268 0.28205,0.0864 0.22461,0.0371 -0.065,-0.0558 -0.16685,-0.0389 -0.25,-0.0586 -0.0113,-0.008 -0.0266,-0.0155 -0.0391,-0.0234 -0.0203,-0.0126 -0.0177,-0.0177 -0.0352,-0.0293 0.12983,0.0226 0.28215,0.0584 0.23828,-0.0195 -0.05,-0.0888 -0.18288,-0.0409 -0.29688,-0.0312 -0.64196,-0.50657 1.87165,-0.0115 0.99219,-0.80664 -0.0469,-0.0423 -0.0938,-0.0847 -0.14062,-0.12695 -0.066,-0.027 -0.13092,-0.0541 -0.19727,-0.0801 -0.0838,-0.0723 -0.15942,-0.1052 -0.24023,-0.11524 -0.0953,-0.0863 -0.21316,-0.19391 -0.23829,-0.20508 -0.0193,-0.009 -0.0407,-0.0122 -0.0605,-0.0195 -0.018,-0.014 -0.0368,-0.0333 -0.0508,-0.043 -0.49767,-0.34613 -0.64236,-0.39228 -0.63282,-0.35546 z m 0.35157,0.28906 c -0.0847,-0.0314 0.17321,0.0536 0.25976,0.0801 10e-4,0.001 0.003,0.004 0.004,0.006 -0.0879,-0.0277 -0.17733,-0.054 -0.26367,-0.0859 z m 0.24804,0.25976 c -0.079,-0.0261 0.16685,0.0131 0.25,0.0195 0.0335,0.0257 0.0282,0.0192 0.0547,0.0391 -0.081,-0.008 -0.15558,-0.009 -0.30469,-0.0586 z m 0.42188,0.10547 c -0.0329,-0.0165 0.0842,0.0123 0.12109,0.0312 0.0216,0.0112 0.0276,0.0177 0.0586,0.043 -0.0605,-0.024 -0.12095,-0.0463 -0.17969,-0.0742 z m -1.33203,0.55274 c 0.0168,0.0146 0.034,0.0284 0.0508,0.043 -10e-4,-4.1e-4 -0.003,4.1e-4 -0.004,0 -0.0189,-0.007 -0.0631,-0.057 -0.0469,-0.043 z m 0.73632,0.50781 c 0.0276,0.0145 0.0552,0.0289 0.082,0.0449 -0.002,-2.2e-4 -0.004,2.7e-4 -0.006,0 -0.0302,-0.005 -0.10225,-0.0586 -0.0762,-0.0449 z" />
    </clipPath>
    <clipPath
       clipPathUnits="userSpaceOnUse"
       id="clipPath564">
      <path
         id="path566"
         style="fill:#ff0000;fill-opacity:1;fill-rule:nonzero;stroke:none;stroke-width:1"
         d="m 160.31447,126.54931 c -0.0938,0.004 -0.04,0.0201 0.0238,0.0357 0.006,-0.003 0.0154,-0.006 0.0207,-0.009 0.0429,-0.019 0.0548,-0.0309 -0.0444,-0.0269 z m 0.0444,0.0269 c 0.001,0.004 0.0114,0.012 0.0217,0.0191 -0.0142,-0.003 -0.0275,-0.007 -0.0424,-0.0103 -0.11519,0.0473 -0.38337,0.13781 -0.19533,0.25063 h -0.001 c 0.0478,0.0287 0.10747,0.0692 0.16226,0.0858 7.9e-4,2.5e-4 0.003,7.9e-4 0.004,10e-4 0.0166,0.0145 0.033,0.0289 0.0496,0.0434 0.24921,0.0613 0.0204,0.004 0.0191,0.005 -0.003,7.9e-4 0.003,0.005 0.005,0.007 0.002,0.003 0.004,0.008 0.008,0.01 0.0345,0.0216 0.0701,0.0406 0.10542,0.061 0.004,-3e-5 0.0103,0.002 0.015,0.003 0.0133,0.008 0.0264,0.0162 0.0408,0.0217 0.0188,0.007 0.0746,0.0229 0.0594,0.01 -0.0172,-0.0148 -0.0442,-0.0103 -0.0662,-0.0155 -0.003,-0.002 -0.007,-0.004 -0.0103,-0.006 -0.005,-0.003 -0.005,-0.005 -0.009,-0.008 0.0343,0.006 0.0747,0.0155 0.0631,-0.005 -0.0132,-0.0235 -0.0484,-0.0108 -0.0786,-0.008 -0.16985,-0.13403 0.49521,-0.003 0.26252,-0.21342 -0.0124,-0.0112 -0.0248,-0.0224 -0.0372,-0.0336 -0.0175,-0.007 -0.0346,-0.0143 -0.0522,-0.0212 -0.0222,-0.0191 -0.0422,-0.0278 -0.0636,-0.0305 -0.0252,-0.0228 -0.0564,-0.0513 -0.063,-0.0543 -0.005,-0.002 -0.0108,-0.003 -0.016,-0.005 -0.005,-0.004 -0.01,-0.009 -0.0134,-0.0114 -0.13168,-0.0916 -0.16996,-0.10379 -0.16743,-0.0941 z m 0.093,0.0765 c -0.0224,-0.008 0.0458,0.0142 0.0687,0.0212 2.6e-4,2.6e-4 7.9e-4,10e-4 0.001,0.002 -0.0233,-0.007 -0.0469,-0.0143 -0.0698,-0.0227 z m 0.0656,0.0687 c -0.0209,-0.007 0.0441,0.003 0.0661,0.005 0.009,0.007 0.007,0.005 0.0145,0.0104 -0.0214,-0.002 -0.0412,-0.002 -0.0806,-0.0155 z m 0.11162,0.0279 c -0.009,-0.004 0.0223,0.003 0.032,0.008 0.006,0.003 0.007,0.005 0.0155,0.0114 -0.016,-0.006 -0.032,-0.0122 -0.0475,-0.0196 z m -0.35243,0.14624 c 0.004,0.004 0.009,0.008 0.0134,0.0114 -2.7e-4,-1.1e-4 -7.9e-4,1.1e-4 -0.001,0 -0.005,-0.002 -0.0167,-0.0151 -0.0124,-0.0114 z m 0.19482,0.13436 c 0.007,0.004 0.0146,0.008 0.0217,0.0119 -5.3e-4,-6e-5 -0.001,7e-5 -0.002,0 -0.008,-0.001 -0.0271,-0.0155 -0.0202,-0.0119 z" />
    </clipPath>
    <clipPath
       clipPathUnits="userSpaceOnUse"
       id="clipPath1048">
      <path
         id="path1050"
         style="fill:#ff0000;fill-opacity:1;fill-rule:nonzero;stroke:none;stroke-width:0.264583"
         d="m 48.207622,101.55342 v 35.85621 H 160.92219 v -35.85621 z m 112.029848,24.91217 v 10e-4 h 5.3e-4 l 5.3e-4,5.3e-4 5.3e-4,0.001 -5.3e-4,5.3e-4 c 0.0217,0.002 0.0447,5.3e-4 0.0651,0.007 0.0294,0.0111 0.0553,0.03 0.0822,0.0465 0.009,0.004 0.0193,0.008 0.0264,0.0124 0.0696,0.004 0.14036,0.002 0.20671,0.0279 h 5.3e-4 c 0.18787,0.0746 0.23399,0.20775 0.16949,0.28267 0.11771,0.12888 -0.15525,0.10843 -0.26354,0.13229 -2.6e-4,0.0119 0.002,0.0208 5.2e-4,0.0336 -0.002,0.0144 -0.002,0.0158 -0.003,0.0279 0.0265,-0.004 0.0538,-0.0113 0.0651,0.01 0.0116,0.0206 -0.0283,0.0121 -0.063,0.005 0.005,0.003 0.004,0.004 0.009,0.008 0.003,0.002 0.007,0.004 0.0103,0.006 0.022,0.005 0.0484,7.9e-4 0.0656,0.0155 0.0152,0.013 -0.0401,-0.003 -0.0589,-0.0103 -0.0108,-0.004 -0.0206,-0.01 -0.0305,-0.0155 -0.0131,0.12229 -0.0134,0.13531 -0.0553,0.32814 -0.0175,0.0805 -0.0465,0.22655 -0.12919,0.293 -0.004,0.007 -0.008,0.0121 -0.0124,0.0181 -0.002,0.0155 0.005,0.0312 0.004,0.047 -0.003,0.0282 -0.007,0.0557 -0.0119,0.0837 -0.016,0.0723 -0.0117,0.12476 -0.03,0.20103 -0.0214,0.0873 -0.0191,0.0305 -0.0191,0.0734 -0.008,0.10697 -0.022,0.21088 -0.0894,0.3085 -0.0184,0.0267 -0.0511,0.0409 -0.0687,0.0682 -0.004,0.006 0.0135,0.006 0.0207,0.009 -0.01,0.0712 -0.0361,0.13776 -0.0222,0.20929 -10e-4,-0.008 -0.003,-0.0303 -0.005,-0.0227 -0.0254,0.10482 -0.0353,0.15641 -0.0403,0.18707 0.0176,-0.017 -0.0137,0.083 0,0 -0.004,0.004 -0.003,-0.003 -0.0145,0.0176 -0.004,0.008 -0.0261,0.0704 -0.0181,0.0687 -0.016,-0.15902 -5.3e-4,-0.0282 -0.009,0.0718 -0.004,0.0123 -0.0134,0.0402 -0.0171,0.061 0.002,0.0205 0.002,0.0409 0.003,0.0615 0.0175,0.10423 -0.0236,0.1941 -0.0651,0.28422 0.007,0.0158 0.005,0.0365 0.006,0.0543 0.005,0.0807 -0.0363,0.11097 -0.093,0.1602 0.009,-0.0255 0.009,-0.0502 0.0119,-0.0455 -0.0229,0.0327 -0.0286,0.0447 -0.0444,0.0693 0.003,-2.6e-4 0.006,4e-5 0.009,-5.3e-4 -0.008,0.007 -0.0122,0.01 -0.0207,0.0186 -0.0533,0.085 -0.0666,0.11692 -0.0811,0.13023 0.0303,0.0161 0.0657,0.0233 0.0951,0.0413 0.11018,0.0675 0.1131,0.0848 0.18501,0.17466 h -5.3e-4 c 0.0925,0.11562 0.0884,0.21867 0.0403,0.27699 0.10054,0.20032 -0.12774,0.37481 -0.30334,0.14676 -0.005,-0.007 -0.0132,-0.0112 -0.0191,-0.0176 -0.0586,0.0223 -0.13865,0.008 -0.22014,-0.0605 -0.0157,0.003 -0.0285,0.008 -0.046,0.009 -0.0934,0.008 -0.18255,-0.0114 -0.26665,-0.0512 -0.01,-0.005 -0.019,-0.0102 -0.0284,-0.0155 -0.20695,0.0673 -0.31899,-0.079 -0.23306,-0.20877 -0.0417,-0.0121 -0.0836,-0.0249 -0.12351,-0.0419 -0.0338,-0.0143 -0.0354,-0.0189 -0.0429,-0.0253 0.0129,0.0102 -0.0247,0.0134 -0.15658,-0.0129 -0.0224,-0.004 -0.0408,-0.0214 -0.061,-0.032 -0.20847,-0.11015 0.11974,-0.25466 0.21601,-0.29507 -0.002,-2.1e-4 -0.006,-5.3e-4 -0.008,-5.3e-4 -0.008,0.002 0.008,-0.003 -0.0352,0.01 -0.0264,0.008 -0.0488,0.0154 -0.0806,0.0165 -0.0138,5.3e-4 0.0254,-0.0102 0.0388,-0.0134 0.0421,-0.0105 0.0593,-0.0134 0.077,-0.0129 0.007,-0.002 0.0288,-0.009 0.0264,-0.007 -0.004,0.002 -0.0136,0.006 -0.0181,0.008 0.014,0.001 0.0267,0.003 0.0599,0.006 0.0224,0.008 0.045,0.0165 0.0672,0.0253 -0.006,-0.12466 0.0781,-0.19978 0.16691,-0.19069 0.0101,0.001 0.02,0.005 0.03,0.008 0.14348,-0.0264 0.3677,-0.0251 0.18965,-0.11782 -0.0162,-0.008 -0.0329,-0.0168 -0.0491,-0.0253 -0.0194,0.002 -0.0717,0.0174 -0.0579,0.004 0.008,-0.007 0.018,-0.0109 0.0295,-0.0119 0.0113,-0.001 0.0236,5.3e-4 0.0341,0.003 0.0502,0.009 0.0836,0.019 0.11162,0.0305 -5.3e-4,-0.13781 0.003,-0.2756 0.0346,-0.41031 0.0129,-0.0541 0.0313,-0.10683 0.047,-0.16019 0.0395,-0.12665 0.10848,-0.23918 0.16898,-0.35605 0.004,-0.008 0.0144,-0.0333 0.0124,-0.0243 -0.003,0.0174 -0.0216,0.0328 -0.0176,0.0501 0.009,0.0449 0.0383,0.17008 0.0527,0.12661 0.0274,-0.0816 -0.017,-0.17219 -0.009,-0.25786 0.002,-0.0217 0.0265,-0.0345 0.0372,-0.0537 0.008,-0.0146 0.0121,-0.031 0.0191,-0.0465 0.004,-0.012 0.009,-0.0243 0.0129,-0.0362 0.013,-0.0344 0.0265,-0.0642 0.0434,-0.0925 -10e-4,-0.0303 -0.003,-0.0652 -0.003,-0.0765 2.4e-4,-0.01 -0.002,-0.0203 5.2e-4,-0.03 0.0142,-0.064 0.0364,-0.11462 0.0703,-0.16227 -0.01,-0.0574 0.007,-0.13415 0.0196,-0.17363 0.004,-0.013 0.01,-0.0183 0.0155,-0.0274 -0.002,-0.0187 -0.008,-0.0377 -0.007,-0.0605 0.004,-0.0576 7.9e-4,-0.046 0.0584,-0.13539 0.002,-0.004 0.008,-0.01 0.0124,-0.015 -1.6e-4,-5.3e-4 -2.2e-4,-5.3e-4 -5.2e-4,-0.002 0.012,-0.0143 0.0246,-0.0291 0.0367,-0.0434 0.0238,-0.10531 0.0505,-0.21037 0.063,-0.3178 0.0189,-0.1643 0.11091,-0.23149 0.19327,-0.21653 0.001,2e-4 0.002,0.001 0.003,0.002 0.003,-0.0109 0.005,-0.0241 0.008,-0.0341 -0.0268,-0.0153 -0.0529,-0.0321 -0.076,-0.046 h 0.001 c -0.13732,-0.0824 -0.03,-0.1521 0.0817,-0.20257 -0.0765,-0.0922 -0.14123,-0.18291 0.0134,-0.16537 z m 0.14573,0.0636 c -0.003,0.001 -0.008,0.004 -0.005,0.005 0.006,5.3e-4 0.0128,5.3e-4 0.0191,0.001 -0.003,-0.002 -0.006,-0.004 -0.009,-0.005 -0.002,-5.3e-4 -0.003,-5.3e-4 -0.005,-0.001 z m -0.44442,0.971 c -0.006,0.002 -0.0117,0.004 -0.017,0.007 -0.002,0.001 -0.003,0.008 -0.004,0.006 -0.001,-0.002 -0.001,-0.005 -0.001,-0.008 -0.006,0.005 -0.0129,0.01 -0.0165,0.0165 -0.009,0.0162 -0.026,0.0668 -0.0124,0.0543 0.0176,-0.0163 0.0314,-0.0356 0.0465,-0.0543 0.001,-0.007 0.004,-0.0141 0.005,-0.0212 z m 0.44856,0.031 c -0.004,0.016 -0.008,0.0319 -0.0124,0.0481 0.005,0.001 0.009,0.004 0.0134,0.005 0.013,0.003 0.005,-0.0266 0.008,-0.0398 -0.005,-0.006 -0.005,-0.007 -0.009,-0.0134 z m -0.51367,0.13849 c -2.4e-4,-2e-4 -0.002,0.001 -0.007,0.004 -0.002,0.005 2.6e-4,0.005 -0.003,0.009 0.005,-0.006 0.009,-0.011 0.01,-0.0124 z m -0.0191,0.0677 c 2.7e-4,0.002 2.3e-4,0.003 5.3e-4,0.005 1e-5,-10e-4 5e-5,-0.003 0,-0.005 z m 5.3e-4,0.005 h -5.3e-4 c 2.5e-4,0.001 2.5e-4,0.003 5.3e-4,0.004 1e-5,-0.001 -1e-5,-0.003 0,-0.004 z m 0,0.004 h -5.3e-4 c 2.5e-4,0.001 2.6e-4,0.002 5.3e-4,0.004 0,-7.9e-4 -1e-5,-0.003 0,-0.004 z m 0,0.004 h -5.3e-4 c 2.4e-4,10e-4 2.7e-4,0.002 5.3e-4,0.003 -1e-5,-8e-4 0,-0.002 0,-0.003 z m 0,0.003 c 4e-5,0.002 1.6e-4,0.004 5.3e-4,0.008 0,0.005 0.005,0.0193 0.004,0.0145 -0.003,-0.009 -0.003,-0.0156 -0.005,-0.0227 z m 0.004,1.56993 c -2.7e-4,0.003 2.1e-4,0.006 -5.3e-4,0.009 -10e-4,0.007 -0.003,0.0125 -0.005,0.0191 0.0182,0.014 0.0372,0.0277 0.0548,0.0424 -0.007,-0.0181 -0.003,-0.002 -0.0196,-0.0522 -0.008,-0.004 -0.0182,-0.0112 -0.0295,-0.0186 z m -0.006,0.31884 h 5.3e-4 c -0.002,0.007 -0.002,0.0141 -0.007,0.0207 -0.001,0.001 -0.003,1e-4 -0.005,5.3e-4 -0.004,7.9e-4 -0.008,5.3e-4 -0.0114,0.001 0.009,-0.008 0.015,-0.0153 0.0227,-0.0222 z m -0.74828,0.33435 c 0.002,0.004 0.003,0.007 0.004,0.009 0.004,-0.001 0.008,-0.003 0.0114,-0.004 -0.005,-0.002 -0.0102,-0.004 -0.015,-0.005 z m -0.38395,0.0506 c 0.0157,0.004 0.0254,0.007 0.0336,0.0109 -0.009,-0.009 -0.007,-0.0128 -0.0336,-0.0109 z" />
    </clipPath>
    <clipPath
       clipPathUnits="userSpaceOnUse"
       id="clipPath1058">
      <path
         id="path1060"
         style="fill:#ff0000;fill-opacity:1;fill-rule:nonzero;stroke:none;stroke-width:0.264583"
         d="m 125.18845,126.3457 v 35.9637 h 47.33613 v -35.9637 z m 35.04902,0.11989 v 10e-4 h 5.3e-4 l 5.3e-4,5.3e-4 5.3e-4,0.001 -5.3e-4,5.3e-4 c 0.0217,0.002 0.0447,5.3e-4 0.0651,0.007 0.0294,0.0111 0.0553,0.03 0.0822,0.0465 0.009,0.004 0.0193,0.008 0.0264,0.0124 0.0696,0.004 0.14036,0.002 0.20671,0.0279 h 5.3e-4 c 0.18787,0.0746 0.23399,0.20775 0.16949,0.28267 0.11771,0.12888 -0.15525,0.10843 -0.26354,0.13229 -2.6e-4,0.0119 0.002,0.0208 5.2e-4,0.0336 -0.002,0.0144 -0.002,0.0158 -0.003,0.0279 0.0265,-0.004 0.0538,-0.0113 0.0651,0.01 0.0116,0.0206 -0.0283,0.0121 -0.063,0.005 0.005,0.003 0.004,0.004 0.009,0.008 0.003,0.002 0.007,0.004 0.0103,0.006 0.022,0.005 0.0484,7.9e-4 0.0656,0.0155 0.0152,0.013 -0.0401,-0.003 -0.0589,-0.0103 -0.0108,-0.004 -0.0206,-0.01 -0.0305,-0.0155 -0.0131,0.12229 -0.0134,0.13531 -0.0553,0.32814 -0.0175,0.0805 -0.0465,0.22655 -0.12919,0.293 -0.004,0.007 -0.008,0.0121 -0.0124,0.0181 -0.002,0.0155 0.005,0.0312 0.004,0.047 -0.003,0.0282 -0.007,0.0557 -0.0119,0.0837 -0.016,0.0723 -0.0117,0.12476 -0.03,0.20103 -0.0214,0.0873 -0.0191,0.0305 -0.0191,0.0734 -0.008,0.10697 -0.022,0.21088 -0.0894,0.3085 -0.0184,0.0267 -0.0511,0.0409 -0.0687,0.0682 -0.004,0.006 0.0135,0.006 0.0207,0.009 -0.01,0.0712 -0.0361,0.13776 -0.0222,0.20929 -10e-4,-0.008 -0.003,-0.0303 -0.005,-0.0227 -0.0254,0.10482 -0.0353,0.15641 -0.0403,0.18707 0.0176,-0.017 -0.0137,0.083 0,0 -0.004,0.004 -0.003,-0.003 -0.0145,0.0176 -0.004,0.008 -0.0261,0.0704 -0.0181,0.0687 -0.016,-0.15902 -5.3e-4,-0.0282 -0.009,0.0718 -0.004,0.0123 -0.0134,0.0402 -0.0171,0.061 0.002,0.0205 0.002,0.0409 0.003,0.0615 0.0175,0.10423 -0.0236,0.1941 -0.0651,0.28422 0.007,0.0158 0.005,0.0365 0.006,0.0543 0.005,0.0807 -0.0363,0.11097 -0.093,0.1602 0.009,-0.0255 0.009,-0.0502 0.0119,-0.0455 -0.0229,0.0327 -0.0286,0.0447 -0.0444,0.0693 0.003,-2.6e-4 0.006,4e-5 0.009,-5.3e-4 -0.008,0.007 -0.0122,0.01 -0.0207,0.0186 -0.0533,0.085 -0.0666,0.11692 -0.0811,0.13023 0.0303,0.0161 0.0657,0.0233 0.0951,0.0413 0.11018,0.0675 0.1131,0.0848 0.18501,0.17466 h -5.3e-4 c 0.0925,0.11562 0.0884,0.21867 0.0403,0.27699 0.10054,0.20032 -0.12774,0.37481 -0.30334,0.14676 -0.005,-0.007 -0.0132,-0.0112 -0.0191,-0.0176 -0.0586,0.0223 -0.13865,0.008 -0.22014,-0.0605 -0.0157,0.003 -0.0285,0.008 -0.046,0.009 -0.0934,0.008 -0.18255,-0.0114 -0.26665,-0.0512 -0.01,-0.005 -0.019,-0.0102 -0.0284,-0.0155 -0.20695,0.0673 -0.31899,-0.079 -0.23306,-0.20877 -0.0417,-0.0121 -0.0836,-0.0249 -0.12351,-0.0419 -0.0338,-0.0143 -0.0354,-0.0189 -0.0429,-0.0253 0.0129,0.0102 -0.0247,0.0134 -0.15658,-0.0129 -0.0224,-0.004 -0.0408,-0.0214 -0.061,-0.032 -0.20847,-0.11015 0.11974,-0.25466 0.21601,-0.29507 -0.002,-2.1e-4 -0.006,-5.3e-4 -0.008,-5.3e-4 -0.008,0.002 0.008,-0.003 -0.0352,0.01 -0.0264,0.008 -0.0488,0.0154 -0.0806,0.0165 -0.0138,5.3e-4 0.0254,-0.0102 0.0388,-0.0134 0.0421,-0.0105 0.0593,-0.0134 0.077,-0.0129 0.007,-0.002 0.0288,-0.009 0.0264,-0.007 -0.004,0.002 -0.0136,0.006 -0.0181,0.008 0.014,0.001 0.0267,0.003 0.0599,0.006 0.0224,0.008 0.045,0.0165 0.0672,0.0253 -0.006,-0.12466 0.0781,-0.19978 0.16691,-0.19069 0.0101,0.001 0.02,0.005 0.03,0.008 0.14348,-0.0264 0.3677,-0.0251 0.18965,-0.11782 -0.0162,-0.008 -0.0329,-0.0168 -0.0491,-0.0253 -0.0194,0.002 -0.0717,0.0174 -0.0579,0.004 0.008,-0.007 0.018,-0.0109 0.0295,-0.0119 0.0113,-0.001 0.0236,5.3e-4 0.0341,0.003 0.0502,0.009 0.0836,0.019 0.11162,0.0305 -5.3e-4,-0.13781 0.003,-0.2756 0.0346,-0.41031 0.0129,-0.0541 0.0313,-0.10683 0.047,-0.16019 0.0395,-0.12665 0.10848,-0.23918 0.16898,-0.35605 0.004,-0.008 0.0144,-0.0333 0.0124,-0.0243 -0.003,0.0174 -0.0216,0.0328 -0.0176,0.0501 0.009,0.0449 0.0383,0.17008 0.0527,0.12661 0.0274,-0.0816 -0.017,-0.17219 -0.009,-0.25786 0.002,-0.0217 0.0265,-0.0345 0.0372,-0.0537 0.008,-0.0146 0.0121,-0.031 0.0191,-0.0465 0.004,-0.012 0.009,-0.0243 0.0129,-0.0362 0.013,-0.0344 0.0265,-0.0642 0.0434,-0.0925 -10e-4,-0.0303 -0.003,-0.0652 -0.003,-0.0765 2.4e-4,-0.01 -0.002,-0.0203 5.2e-4,-0.03 0.0142,-0.064 0.0364,-0.11462 0.0703,-0.16227 -0.01,-0.0574 0.007,-0.13415 0.0196,-0.17363 0.004,-0.013 0.01,-0.0183 0.0155,-0.0274 -0.002,-0.0187 -0.008,-0.0377 -0.007,-0.0605 0.004,-0.0576 7.9e-4,-0.046 0.0584,-0.13539 0.002,-0.004 0.008,-0.01 0.0124,-0.015 -1.6e-4,-5.3e-4 -2.2e-4,-5.3e-4 -5.2e-4,-0.002 0.012,-0.0143 0.0246,-0.0291 0.0367,-0.0434 0.0238,-0.10531 0.0505,-0.21037 0.063,-0.3178 0.0189,-0.1643 0.11091,-0.23149 0.19327,-0.21653 0.001,2e-4 0.002,0.001 0.003,0.002 0.003,-0.0109 0.005,-0.0241 0.008,-0.0341 -0.0268,-0.0153 -0.0529,-0.0321 -0.076,-0.046 h 0.001 c -0.13732,-0.0824 -0.03,-0.1521 0.0817,-0.20257 -0.0765,-0.0922 -0.14123,-0.18291 0.0134,-0.16537 z m 0.14573,0.0636 c -0.003,0.001 -0.008,0.004 -0.005,0.005 0.006,5.3e-4 0.0128,5.3e-4 0.0191,0.001 -0.003,-0.002 -0.006,-0.004 -0.009,-0.005 -0.002,-5.3e-4 -0.003,-5.3e-4 -0.005,-0.001 z m -0.44442,0.971 c -0.006,0.002 -0.0117,0.004 -0.017,0.007 -0.002,0.001 -0.003,0.008 -0.004,0.006 -0.001,-0.002 -0.001,-0.005 -0.001,-0.008 -0.006,0.005 -0.0129,0.01 -0.0165,0.0165 -0.009,0.0162 -0.026,0.0668 -0.0124,0.0543 0.0176,-0.0163 0.0314,-0.0356 0.0465,-0.0543 0.001,-0.007 0.004,-0.0141 0.005,-0.0212 z m 0.44856,0.031 c -0.004,0.016 -0.008,0.0319 -0.0124,0.0481 0.005,0.001 0.009,0.004 0.0134,0.005 0.013,0.003 0.005,-0.0266 0.008,-0.0398 -0.005,-0.006 -0.005,-0.007 -0.009,-0.0134 z m -0.51367,0.13849 c -2.4e-4,-2e-4 -0.002,0.001 -0.007,0.004 -0.002,0.005 2.6e-4,0.005 -0.003,0.009 0.005,-0.006 0.009,-0.011 0.01,-0.0124 z m -0.0191,0.0677 c 2.7e-4,0.002 2.3e-4,0.003 5.3e-4,0.005 1e-5,-10e-4 5e-5,-0.003 0,-0.005 z m 5.3e-4,0.005 h -5.3e-4 c 2.5e-4,0.001 2.5e-4,0.003 5.3e-4,0.004 1e-5,-0.001 -1e-5,-0.003 0,-0.004 z m 0,0.004 h -5.3e-4 c 2.5e-4,0.001 2.6e-4,0.002 5.3e-4,0.004 0,-7.9e-4 -1e-5,-0.003 0,-0.004 z m 0,0.004 h -5.3e-4 c 2.4e-4,10e-4 2.7e-4,0.002 5.3e-4,0.003 -1e-5,-8e-4 0,-0.002 0,-0.003 z m 0,0.003 c 4e-5,0.002 1.6e-4,0.004 5.3e-4,0.008 0,0.005 0.005,0.0193 0.004,0.0145 -0.003,-0.009 -0.003,-0.0156 -0.005,-0.0227 z m 0.004,1.56993 c -2.7e-4,0.003 2.1e-4,0.006 -5.3e-4,0.009 -10e-4,0.007 -0.003,0.0125 -0.005,0.0191 0.0182,0.014 0.0372,0.0277 0.0548,0.0424 -0.007,-0.0181 -0.003,-0.002 -0.0196,-0.0522 -0.008,-0.004 -0.0182,-0.0112 -0.0295,-0.0186 z m -0.006,0.31884 h 5.3e-4 c -0.002,0.007 -0.002,0.0141 -0.007,0.0207 -0.001,0.001 -0.003,1e-4 -0.005,5.3e-4 -0.004,7.9e-4 -0.008,5.3e-4 -0.0114,0.001 0.009,-0.008 0.015,-0.0153 0.0227,-0.0222 z m -0.74828,0.33435 c 0.002,0.004 0.003,0.007 0.004,0.009 0.004,-0.001 0.008,-0.003 0.0114,-0.004 -0.005,-0.002 -0.0102,-0.004 -0.015,-0.005 z m -0.38395,0.0506 c 0.0157,0.004 0.0254,0.007 0.0336,0.0109 -0.009,-0.009 -0.007,-0.0128 -0.0336,-0.0109 z" />
    </clipPath>
    <clipPath
       clipPathUnits="userSpaceOnUse"
       id="clipPath1068">
      <path
         id="path1070"
         style="fill:#ff0000;fill-opacity:1;fill-rule:nonzero;stroke:none;stroke-width:0.264583"
         d="m 34.420866,125.82997 v 33.19798 H 164.78345 v -33.19798 z m 125.816604,0.63562 v 10e-4 h 5.3e-4 l 5.3e-4,5.3e-4 5.3e-4,0.001 -5.3e-4,5.3e-4 c 0.0217,0.002 0.0447,5.3e-4 0.0651,0.007 0.0294,0.0111 0.0553,0.03 0.0822,0.0465 0.009,0.004 0.0193,0.008 0.0264,0.0124 0.0696,0.004 0.14036,0.002 0.20671,0.0279 h 5.3e-4 c 0.18787,0.0746 0.23399,0.20775 0.16949,0.28267 0.11771,0.12888 -0.15525,0.10843 -0.26354,0.13229 -2.6e-4,0.0119 0.002,0.0208 5.2e-4,0.0336 -0.002,0.0144 -0.002,0.0158 -0.003,0.0279 0.0265,-0.004 0.0538,-0.0113 0.0651,0.01 0.0116,0.0206 -0.0283,0.0121 -0.063,0.005 0.005,0.003 0.004,0.004 0.009,0.008 0.003,0.002 0.007,0.004 0.0103,0.006 0.022,0.005 0.0484,7.9e-4 0.0656,0.0155 0.0152,0.013 -0.0401,-0.003 -0.0589,-0.0103 -0.0108,-0.004 -0.0206,-0.01 -0.0305,-0.0155 -0.0131,0.12229 -0.0134,0.13531 -0.0553,0.32814 -0.0175,0.0805 -0.0465,0.22655 -0.12919,0.293 -0.004,0.007 -0.008,0.0121 -0.0124,0.0181 -0.002,0.0155 0.005,0.0312 0.004,0.047 -0.003,0.0282 -0.007,0.0557 -0.0119,0.0837 -0.016,0.0723 -0.0117,0.12476 -0.03,0.20103 -0.0214,0.0873 -0.0191,0.0305 -0.0191,0.0734 -0.008,0.10697 -0.022,0.21088 -0.0894,0.3085 -0.0184,0.0267 -0.0511,0.0409 -0.0687,0.0682 -0.004,0.006 0.0135,0.006 0.0207,0.009 -0.01,0.0712 -0.0361,0.13776 -0.0222,0.20929 -10e-4,-0.008 -0.003,-0.0303 -0.005,-0.0227 -0.0254,0.10482 -0.0353,0.15641 -0.0403,0.18707 0.0176,-0.017 -0.0137,0.083 0,0 -0.004,0.004 -0.003,-0.003 -0.0145,0.0176 -0.004,0.008 -0.0261,0.0704 -0.0181,0.0687 -0.016,-0.15902 -5.3e-4,-0.0282 -0.009,0.0718 -0.004,0.0123 -0.0134,0.0402 -0.0171,0.061 0.002,0.0205 0.002,0.0409 0.003,0.0615 0.0175,0.10423 -0.0236,0.1941 -0.0651,0.28422 0.007,0.0158 0.005,0.0365 0.006,0.0543 0.005,0.0807 -0.0363,0.11097 -0.093,0.1602 0.009,-0.0255 0.009,-0.0502 0.0119,-0.0455 -0.0229,0.0327 -0.0286,0.0447 -0.0444,0.0693 0.003,-2.6e-4 0.006,4e-5 0.009,-5.3e-4 -0.008,0.007 -0.0122,0.01 -0.0207,0.0186 -0.0533,0.085 -0.0666,0.11692 -0.0811,0.13023 0.0303,0.0161 0.0657,0.0233 0.0951,0.0413 0.11018,0.0675 0.1131,0.0848 0.18501,0.17466 h -5.3e-4 c 0.0925,0.11562 0.0884,0.21867 0.0403,0.27699 0.10054,0.20032 -0.12774,0.37481 -0.30334,0.14676 -0.005,-0.007 -0.0132,-0.0112 -0.0191,-0.0176 -0.0586,0.0223 -0.13865,0.008 -0.22014,-0.0605 -0.0157,0.003 -0.0285,0.008 -0.046,0.009 -0.0934,0.008 -0.18255,-0.0114 -0.26665,-0.0512 -0.01,-0.005 -0.019,-0.0102 -0.0284,-0.0155 -0.20695,0.0673 -0.31899,-0.079 -0.23306,-0.20877 -0.0417,-0.0121 -0.0836,-0.0249 -0.12351,-0.0419 -0.0338,-0.0143 -0.0354,-0.0189 -0.0429,-0.0253 0.0129,0.0102 -0.0247,0.0134 -0.15658,-0.0129 -0.0224,-0.004 -0.0408,-0.0214 -0.061,-0.032 -0.20847,-0.11015 0.11974,-0.25466 0.21601,-0.29507 -0.002,-2.1e-4 -0.006,-5.3e-4 -0.008,-5.3e-4 -0.008,0.002 0.008,-0.003 -0.0352,0.01 -0.0264,0.008 -0.0488,0.0154 -0.0806,0.0165 -0.0138,5.3e-4 0.0254,-0.0102 0.0388,-0.0134 0.0421,-0.0105 0.0593,-0.0134 0.077,-0.0129 0.007,-0.002 0.0288,-0.009 0.0264,-0.007 -0.004,0.002 -0.0136,0.006 -0.0181,0.008 0.014,0.001 0.0267,0.003 0.0599,0.006 0.0224,0.008 0.045,0.0165 0.0672,0.0253 -0.006,-0.12466 0.0781,-0.19978 0.16691,-0.19069 0.0101,0.001 0.02,0.005 0.03,0.008 0.14348,-0.0264 0.3677,-0.0251 0.18965,-0.11782 -0.0162,-0.008 -0.0329,-0.0168 -0.0491,-0.0253 -0.0194,0.002 -0.0717,0.0174 -0.0579,0.004 0.008,-0.007 0.018,-0.0109 0.0295,-0.0119 0.0113,-0.001 0.0236,5.3e-4 0.0341,0.003 0.0502,0.009 0.0836,0.019 0.11162,0.0305 -5.3e-4,-0.13781 0.003,-0.2756 0.0346,-0.41031 0.0129,-0.0541 0.0313,-0.10683 0.047,-0.16019 0.0395,-0.12665 0.10848,-0.23918 0.16898,-0.35605 0.004,-0.008 0.0144,-0.0333 0.0124,-0.0243 -0.003,0.0174 -0.0216,0.0328 -0.0176,0.0501 0.009,0.0449 0.0383,0.17008 0.0527,0.12661 0.0274,-0.0816 -0.017,-0.17219 -0.009,-0.25786 0.002,-0.0217 0.0265,-0.0345 0.0372,-0.0537 0.008,-0.0146 0.0121,-0.031 0.0191,-0.0465 0.004,-0.012 0.009,-0.0243 0.0129,-0.0362 0.013,-0.0344 0.0265,-0.0642 0.0434,-0.0925 -10e-4,-0.0303 -0.003,-0.0652 -0.003,-0.0765 2.4e-4,-0.01 -0.002,-0.0203 5.2e-4,-0.03 0.0142,-0.064 0.0364,-0.11462 0.0703,-0.16227 -0.01,-0.0574 0.007,-0.13415 0.0196,-0.17363 0.004,-0.013 0.01,-0.0183 0.0155,-0.0274 -0.002,-0.0187 -0.008,-0.0377 -0.007,-0.0605 0.004,-0.0576 7.9e-4,-0.046 0.0584,-0.13539 0.002,-0.004 0.008,-0.01 0.0124,-0.015 -1.6e-4,-5.3e-4 -2.2e-4,-5.3e-4 -5.2e-4,-0.002 0.012,-0.0143 0.0246,-0.0291 0.0367,-0.0434 0.0238,-0.10531 0.0505,-0.21037 0.063,-0.3178 0.0189,-0.1643 0.11091,-0.23149 0.19327,-0.21653 0.001,2e-4 0.002,0.001 0.003,0.002 0.003,-0.0109 0.005,-0.0241 0.008,-0.0341 -0.0268,-0.0153 -0.0529,-0.0321 -0.076,-0.046 h 0.001 c -0.13732,-0.0824 -0.03,-0.1521 0.0817,-0.20257 -0.0765,-0.0922 -0.14123,-0.18291 0.0134,-0.16537 z m 0.14573,0.0636 c -0.003,0.001 -0.008,0.004 -0.005,0.005 0.006,5.3e-4 0.0128,5.3e-4 0.0191,0.001 -0.003,-0.002 -0.006,-0.004 -0.009,-0.005 -0.002,-5.3e-4 -0.003,-5.3e-4 -0.005,-0.001 z m -0.44442,0.971 c -0.006,0.002 -0.0117,0.004 -0.017,0.007 -0.002,0.001 -0.003,0.008 -0.004,0.006 -0.001,-0.002 -0.001,-0.005 -0.001,-0.008 -0.006,0.005 -0.0129,0.01 -0.0165,0.0165 -0.009,0.0162 -0.026,0.0668 -0.0124,0.0543 0.0176,-0.0163 0.0314,-0.0356 0.0465,-0.0543 0.001,-0.007 0.004,-0.0141 0.005,-0.0212 z m 0.44856,0.031 c -0.004,0.016 -0.008,0.0319 -0.0124,0.0481 0.005,0.001 0.009,0.004 0.0134,0.005 0.013,0.003 0.005,-0.0266 0.008,-0.0398 -0.005,-0.006 -0.005,-0.007 -0.009,-0.0134 z m -0.51367,0.13849 c -2.4e-4,-2e-4 -0.002,0.001 -0.007,0.004 -0.002,0.005 2.6e-4,0.005 -0.003,0.009 0.005,-0.006 0.009,-0.011 0.01,-0.0124 z m -0.0191,0.0677 c 2.7e-4,0.002 2.3e-4,0.003 5.3e-4,0.005 1e-5,-10e-4 5e-5,-0.003 0,-0.005 z m 5.3e-4,0.005 h -5.3e-4 c 2.5e-4,0.001 2.5e-4,0.003 5.3e-4,0.004 1e-5,-0.001 -1e-5,-0.003 0,-0.004 z m 0,0.004 h -5.3e-4 c 2.5e-4,0.001 2.6e-4,0.002 5.3e-4,0.004 0,-7.9e-4 -1e-5,-0.003 0,-0.004 z m 0,0.004 h -5.3e-4 c 2.4e-4,10e-4 2.7e-4,0.002 5.3e-4,0.003 -1e-5,-8e-4 0,-0.002 0,-0.003 z m 0,0.003 c 4e-5,0.002 1.6e-4,0.004 5.3e-4,0.008 0,0.005 0.005,0.0193 0.004,0.0145 -0.003,-0.009 -0.003,-0.0156 -0.005,-0.0227 z m 0.004,1.56993 c -2.7e-4,0.003 2.1e-4,0.006 -5.3e-4,0.009 -10e-4,0.007 -0.003,0.0125 -0.005,0.0191 0.0182,0.014 0.0372,0.0277 0.0548,0.0424 -0.007,-0.0181 -0.003,-0.002 -0.0196,-0.0522 -0.008,-0.004 -0.0182,-0.0112 -0.0295,-0.0186 z m -0.006,0.31884 h 5.3e-4 c -0.002,0.007 -0.002,0.0141 -0.007,0.0207 -0.001,0.001 -0.003,1e-4 -0.005,5.3e-4 -0.004,7.9e-4 -0.008,5.3e-4 -0.0114,0.001 0.009,-0.008 0.015,-0.0153 0.0227,-0.0222 z m -0.74828,0.33435 c 0.002,0.004 0.003,0.007 0.004,0.009 0.004,-0.001 0.008,-0.003 0.0114,-0.004 -0.005,-0.002 -0.0102,-0.004 -0.015,-0.005 z m -0.38395,0.0506 c 0.0157,0.004 0.0254,0.007 0.0336,0.0109 -0.009,-0.009 -0.007,-0.0128 -0.0336,-0.0109 z" />
    </clipPath>
    <clipPath
       clipPathUnits="userSpaceOnUse"
       id="clipPath1078">
      <path
         id="path1080"
         style="fill:#ff0000;fill-opacity:1;fill-rule:nonzero;stroke:none"
         d="m 116.88086,72.65625 v 130.84766 h 427.7793 v -33.89649 c -0.03,0.035 -0.062,0.0677 -0.0937,0.0996 -0.0134,0.0243 -0.0286,0.0444 -0.043,0.0664 -0.005,0.0584 0.0202,0.11978 0.0137,0.17968 -0.0117,0.10655 -0.0318,0.21242 -0.0469,0.31836 -0.0605,0.27324 -0.0418,0.47154 -0.11132,0.75977 -0.0809,0.32999 -0.0723,0.11543 -0.0723,0.27734 -0.031,0.40425 -0.0832,0.79702 -0.33789,1.16602 -0.0695,0.10076 -0.19595,0.15448 -0.26172,0.25781 -0.0147,0.0234 0.0497,0.0234 0.0762,0.0352 -0.0367,0.26931 -0.13634,0.52059 -0.084,0.79101 -0.004,-0.0287 -0.01,-0.11493 -0.0176,-0.0859 -0.0961,0.39612 -0.13519,0.59116 -0.1543,0.70703 0.0666,-0.0642 -0.0517,0.31378 0,0 -0.0145,0.014 -0.013,-0.0121 -0.0527,0.0664 -0.0155,0.0307 -0.10064,0.26619 -0.0703,0.25977 -0.0605,-0.60098 7.2e-4,-0.10639 -0.0332,0.27148 -0.0144,0.0464 -0.0504,0.15193 -0.0644,0.23047 0.007,0.0776 0.008,0.15455 0.0117,0.23242 0.0662,0.39396 -0.0893,0.73361 -0.24609,1.07422 0.0261,0.0596 0.0182,0.13595 0.0215,0.20313 0.0171,0.30487 -0.13907,0.42136 -0.35352,0.60742 -0.009,0.027 -0.009,0.0525 -0.0273,0.0781 -0.004,0.005 -0.01,3.8e-4 -0.0176,0.002 -0.0144,0.003 -0.0302,0.002 -0.0449,0.004 -0.0297,0.0275 -0.0461,0.0397 -0.0781,0.0723 -0.20122,0.32072 -0.25362,0.44171 -0.3086,0.49219 0.11485,0.0616 0.24954,0.0897 0.36133,0.1582 0.41643,0.25495 0.42747,0.32045 0.69922,0.66016 h -0.002 c 0.35069,0.43835 0.33388,0.82886 0.15039,1.04882 0.3753,0.75556 -0.48574,1.41133 -1.14844,0.55079 -0.0207,-0.0269 -0.0513,-0.0421 -0.0742,-0.0664 -0.22122,0.0849 -0.52422,0.0304 -0.83203,-0.22656 -0.057,0.0106 -0.10263,0.0297 -0.16602,0.0352 -0.35285,0.0302 -0.68995,-0.0432 -1.00781,-0.19336 -0.037,-0.0174 -0.0719,-0.0386 -0.10742,-0.0586 -0.77993,0.25369 -1.20428,-0.29593 -0.88477,-0.78516 -0.16037,-0.0463 -0.32097,-0.097 -0.47461,-0.1621 -0.1278,-0.0542 -0.13383,-0.0715 -0.16211,-0.0957 0.0487,0.0387 -0.0933,0.0508 -0.59179,-0.0488 -0.0847,-0.0169 -0.15217,-0.0807 -0.22852,-0.12109 -0.78877,-0.41673 0.4559,-0.96315 0.81836,-1.11523 -0.008,-5.3e-4 -0.0258,-0.004 -0.0332,-0.004 -0.0295,0.009 0.0292,-0.0122 -0.13281,0.0391 -0.0998,0.0316 -0.1845,0.058 -0.30469,0.0625 -0.0522,0.002 0.0955,-0.0403 0.14648,-0.0527 0.15915,-0.0397 0.22421,-0.0506 0.29102,-0.0488 0.0248,-0.007 0.15315,-0.0506 0.11133,-0.0332 -0.0133,0.006 -0.0597,0.0294 -0.0781,0.0371 0.0533,0.004 0.10248,0.0111 0.22852,0.0234 0.085,0.032 0.17129,0.0619 0.25586,0.0957 -0.0221,-0.47114 0.29529,-0.75507 0.63086,-0.72071 0.0393,0.004 0.0785,0.0193 0.11718,0.0332 0.5423,-0.0997 1.38974,-0.0947 0.7168,-0.44532 -0.0612,-0.032 -0.12432,-0.0636 -0.18555,-0.0957 -0.0733,0.006 -0.2709,0.0673 -0.21875,0.0156 0.0289,-0.0283 0.0684,-0.041 0.11133,-0.0449 0.0429,-0.004 0.089,0.002 0.12891,0.01 0.18965,0.0351 0.31597,0.0719 0.42187,0.11523 -0.002,-0.51919 0.008,-1.03935 0.12891,-1.54687 0.0488,-0.20449 0.11839,-0.40379 0.17773,-0.60547 0.14941,-0.47869 0.41006,-0.90401 0.63867,-1.3457 0.0155,-0.0309 0.0544,-0.12582 0.0469,-0.0918 -0.0117,0.0657 -0.0796,0.12407 -0.0645,0.18945 0.0344,0.16961 0.14674,0.64281 0.20117,0.47852 0.10356,-0.30852 -0.0654,-0.65082 -0.0352,-0.97461 0.007,-0.0822 0.10019,-0.1312 0.14063,-0.20313 0.031,-0.0554 0.0458,-0.11716 0.0723,-0.17578 0.0147,-0.0453 0.0337,-0.0917 0.0488,-0.13672 0.049,-0.13018 0.10014,-0.2427 0.16406,-0.34961 -0.005,-0.11436 -0.0102,-0.24647 -0.01,-0.28906 9.1e-4,-0.0366 -0.004,-0.0758 0.004,-0.11133 0.0536,-0.24207 0.13761,-0.43314 0.26563,-0.61328 -0.0373,-0.21682 0.0257,-0.50701 0.0742,-0.65625 0.0159,-0.049 0.0368,-0.069 0.0586,-0.10351 -0.009,-0.0705 -0.0308,-0.14243 -0.0273,-0.22852 0.0159,-0.2178 0.003,-0.17371 0.2207,-0.51172 0.009,-0.0143 0.0317,-0.0362 0.0488,-0.0566 -6.3e-4,-0.002 -8e-4,-0.004 -0.002,-0.006 0.0443,-0.0526 0.0884,-0.10561 0.13281,-0.1582 0.0904,-0.40067 0.19332,-0.80028 0.24023,-1.20898 0.0714,-0.62092 0.41923,-0.87491 0.73047,-0.81836 0.002,3.5e-4 0.004,0.002 0.006,0.002 0.011,-0.0405 0.0155,-0.0906 0.0293,-0.12695 -0.0984,-0.0568 -0.1942,-0.11888 -0.2793,-0.16993 h 0.004 c -0.51835,-0.31099 -0.11618,-0.57496 0.30664,-0.76562 -0.28835,-0.34755 -0.53277,-0.68855 0.0547,-0.62109 0.082,0.009 0.16899,-0.002 0.24609,0.0273 0.0775,0.0293 0.14639,0.0768 0.2168,0.12109 V 72.65625 Z m 425.76953,104.55273 c 0.0343,-0.0318 0.059,-0.0572 0.0898,-0.084 0.0342,-0.0976 0.0341,-0.19218 0.043,-0.17383 -0.0864,0.12361 -0.1086,0.16932 -0.16797,0.26172 0.0117,-0.001 0.0236,-0.002 0.0352,-0.004 z m 0.41406,-8.17578 c -0.0217,0.008 -0.0444,0.0151 -0.0644,0.0254 -0.008,0.004 -0.0119,0.029 -0.0156,0.0215 -0.005,-0.009 -0.004,-0.0208 -0.004,-0.0312 -0.0242,0.0193 -0.0503,0.0368 -0.0644,0.0625 -0.0333,0.0612 -0.10035,0.25251 -0.0488,0.20508 0.0672,-0.0622 0.12214,-0.13586 0.17969,-0.20703 0.005,-0.0255 0.0123,-0.0507 0.0176,-0.0762 z m -0.24218,0.63672 c 0.002,-0.003 -0.006,0.002 -0.0293,0.0156 -0.006,0.0184 -0.005,0.019 -0.01,0.0332 0.0205,-0.0241 0.0369,-0.0451 0.0391,-0.0488 z m -0.0742,0.25781 c 8.4e-4,0.0271 -0.002,0.0386 0.002,0.0899 0,0.0183 0.0194,0.0728 0.0156,0.0547 -0.0121,-0.0555 -0.008,-0.0979 -0.0176,-0.14454 z m 0.0137,5.99219 c -0.002,0.0123 8.6e-4,0.0206 -0.002,0.0332 -0.005,0.0261 -0.0122,0.052 -0.0176,0.0781 0.0682,0.0524 0.13947,0.1013 0.20508,0.15625 -0.0272,-0.0686 -0.013,-0.0119 -0.0742,-0.19922 -0.0284,-0.015 -0.0688,-0.0407 -0.11133,-0.0684 z m -2.85156,2.47266 c 0.006,0.0152 0.009,0.025 0.0137,0.0351 0.0134,-0.004 0.0291,-0.0122 0.043,-0.0156 -0.0176,-0.006 -0.0383,-0.0133 -0.0566,-0.0195 z m -1.45118,0.1875 c 0.0594,0.0143 0.096,0.0277 0.12696,0.041 -0.0326,-0.0349 -0.0279,-0.048 -0.12696,-0.041 z" />
    </clipPath>
    <clipPath
       clipPathUnits="userSpaceOnUse"
       id="clipPath1088">
      <path
         id="path1090"
         style="fill:#ff0000;fill-opacity:1;fill-rule:nonzero;stroke:none"
         d="M 180.35938,72.472656 V 204.69336 h 365.06835 v -37.26172 c -0.0158,-0.005 -0.038,-0.01 -0.0488,-0.0137 -0.0406,-0.0154 -0.0778,-0.0383 -0.11524,-0.0606 -0.0494,0.46221 -0.0508,0.51141 -0.20898,1.24024 -0.0661,0.30449 -0.17594,0.85623 -0.48828,1.10742 -0.0137,0.0248 -0.0283,0.0459 -0.043,0.0684 -0.005,0.0584 0.0202,0.11978 0.0137,0.17968 -0.0117,0.10655 -0.0318,0.21242 -0.0469,0.31836 -0.0605,0.27324 -0.0418,0.47154 -0.11132,0.75977 -0.0809,0.32999 -0.0723,0.11543 -0.0723,0.27734 -0.031,0.40425 -0.0832,0.79702 -0.33789,1.16602 -0.0695,0.10076 -0.19595,0.15448 -0.26172,0.25781 -0.0147,0.0234 0.0497,0.0234 0.0762,0.0352 -0.0367,0.26931 -0.13634,0.52059 -0.084,0.79101 -0.004,-0.0287 -0.01,-0.11493 -0.0176,-0.0859 -0.0961,0.39612 -0.13519,0.59116 -0.1543,0.70703 0.0666,-0.0642 -0.0517,0.31378 0,0 -0.0145,0.014 -0.013,-0.0121 -0.0527,0.0664 -0.0155,0.0307 -0.10064,0.26619 -0.0703,0.25977 -0.0605,-0.60098 7.2e-4,-0.10639 -0.0332,0.27148 -0.0144,0.0464 -0.0504,0.15193 -0.0644,0.23047 0.007,0.0776 0.008,0.15455 0.0117,0.23242 0.0662,0.39396 -0.0893,0.73361 -0.24609,1.07422 0.0261,0.0596 0.0182,0.13595 0.0215,0.20313 0.0171,0.30487 -0.13907,0.42136 -0.35352,0.60742 -0.009,0.027 -0.009,0.0525 -0.0273,0.0781 -0.004,0.005 -0.01,3.8e-4 -0.0176,0.002 -0.0144,0.003 -0.0302,0.002 -0.0449,0.004 -0.0297,0.0275 -0.0461,0.0397 -0.0781,0.0723 -0.20122,0.32072 -0.25362,0.44171 -0.3086,0.49219 0.11485,0.0616 0.24954,0.0897 0.36133,0.1582 0.41643,0.25495 0.42747,0.32045 0.69922,0.66016 h -0.002 c 0.35069,0.43835 0.33388,0.82886 0.15039,1.04882 0.3753,0.75556 -0.48574,1.41133 -1.14844,0.55079 -0.0207,-0.0269 -0.0513,-0.0421 -0.0742,-0.0664 -0.22122,0.0849 -0.52422,0.0304 -0.83203,-0.22656 -0.057,0.0106 -0.10263,0.0297 -0.16602,0.0352 -0.35285,0.0302 -0.68995,-0.0432 -1.00781,-0.19336 -0.037,-0.0174 -0.0719,-0.0386 -0.10742,-0.0586 -0.77993,0.25369 -1.20428,-0.29593 -0.88477,-0.78516 -0.16037,-0.0463 -0.32097,-0.097 -0.47461,-0.1621 -0.1278,-0.0542 -0.13383,-0.0715 -0.16211,-0.0957 0.0487,0.0387 -0.0933,0.0508 -0.59179,-0.0488 -0.0847,-0.0169 -0.15217,-0.0807 -0.22852,-0.12109 -0.78877,-0.41673 0.4559,-0.96315 0.81836,-1.11523 -0.008,-5.3e-4 -0.0258,-0.004 -0.0332,-0.004 -0.0295,0.009 0.0292,-0.0122 -0.13281,0.0391 -0.0998,0.0316 -0.1845,0.058 -0.30469,0.0625 -0.0522,0.002 0.0955,-0.0403 0.14648,-0.0527 0.15915,-0.0397 0.22421,-0.0506 0.29102,-0.0488 0.0248,-0.007 0.15315,-0.0506 0.11133,-0.0332 -0.0133,0.006 -0.0597,0.0294 -0.0781,0.0371 0.0533,0.004 0.10248,0.0111 0.22852,0.0234 0.085,0.032 0.17129,0.0619 0.25586,0.0957 -0.0221,-0.47114 0.29529,-0.75507 0.63086,-0.72071 0.0393,0.004 0.0785,0.0193 0.11718,0.0332 0.5423,-0.0997 1.38974,-0.0947 0.7168,-0.44532 -0.0612,-0.032 -0.12432,-0.0636 -0.18555,-0.0957 -0.0733,0.006 -0.2709,0.0673 -0.21875,0.0156 0.0289,-0.0283 0.0684,-0.041 0.11133,-0.0449 0.0429,-0.004 0.089,0.002 0.12891,0.01 0.18965,0.0351 0.31597,0.0719 0.42187,0.11523 -0.002,-0.51919 0.008,-1.03935 0.12891,-1.54687 0.0488,-0.20449 0.11839,-0.40379 0.17773,-0.60547 0.14941,-0.47869 0.41006,-0.90401 0.63867,-1.3457 0.0155,-0.0309 0.0544,-0.12582 0.0469,-0.0918 -0.0117,0.0657 -0.0796,0.12407 -0.0645,0.18945 0.0344,0.16961 0.14674,0.64281 0.20117,0.47852 0.10356,-0.30852 -0.0654,-0.65082 -0.0352,-0.97461 0.007,-0.0822 0.10019,-0.1312 0.14063,-0.20313 0.031,-0.0554 0.0458,-0.11716 0.0723,-0.17578 0.0147,-0.0453 0.0337,-0.0917 0.0488,-0.13672 0.049,-0.13018 0.10014,-0.2427 0.16406,-0.34961 -0.005,-0.11436 -0.0102,-0.24647 -0.01,-0.28906 9.1e-4,-0.0366 -0.004,-0.0758 0.004,-0.11133 0.0536,-0.24207 0.13761,-0.43314 0.26563,-0.61328 -0.0373,-0.21682 0.0257,-0.50701 0.0742,-0.65625 0.0159,-0.049 0.0368,-0.069 0.0586,-0.10351 -0.009,-0.0705 -0.0308,-0.14243 -0.0273,-0.22852 0.0159,-0.2178 0.003,-0.17371 0.2207,-0.51172 0.009,-0.0143 0.0317,-0.0362 0.0488,-0.0566 -6.3e-4,-0.002 -8e-4,-0.004 -0.002,-0.006 0.0443,-0.0526 0.0884,-0.10561 0.13281,-0.1582 0.0904,-0.40067 0.19332,-0.80028 0.24023,-1.20898 0.0714,-0.62092 0.41923,-0.87491 0.73047,-0.81836 0.003,6.1e-4 0.006,0.003 0.01,0.004 0.012,-0.0403 0.0176,-0.0898 0.0312,-0.12695 -0.10033,-0.0577 -0.19849,-0.11989 -0.28516,-0.17188 h 0.004 c -0.51835,-0.31099 -0.11618,-0.57496 0.30664,-0.76562 -0.28835,-0.34755 -0.53277,-0.68855 0.0547,-0.62109 0.082,0.009 0.16899,-0.002 0.24609,0.0273 0.11104,0.0419 0.20899,0.11161 0.31055,0.17383 0.0357,0.016 0.0724,0.03 0.0996,0.0527 0.19253,0.011 0.3851,0.0233 0.57421,0.0606 V 72.472656 Z M 542.65039,177.20898 c 0.0343,-0.0318 0.059,-0.0572 0.0898,-0.084 0.0342,-0.0976 0.0341,-0.19218 0.043,-0.17383 -0.0864,0.12361 -0.1086,0.16932 -0.16797,0.26172 0.0117,-0.001 0.0236,-0.002 0.0352,-0.004 z m 2.09375,-11.8457 c -0.0103,0.004 -0.0289,0.0167 -0.0195,0.0176 0.0239,0.002 0.0483,0.002 0.0723,0.004 -0.0119,-0.007 -0.023,-0.0136 -0.0332,-0.0176 -0.006,-0.002 -0.013,-0.002 -0.0195,-0.004 z m 0.68359,1.67774 c -0.0469,0.006 -0.10894,0.009 -0.14648,0.0176 -10e-4,0.045 0.007,0.0806 0.002,0.12891 -0.006,0.0545 -0.007,0.0542 -0.0117,0.0996 0.058,-0.008 0.10865,-0.007 0.15625,0 z m -0.14843,0.30273 c 0.0175,0.0117 0.0148,0.0167 0.0352,0.0293 0.0125,0.008 0.0277,0.0155 0.0391,0.0234 0.0236,0.006 0.0489,0.008 0.0742,0.01 v -0.041 c -0.0454,-0.005 -0.096,-0.0123 -0.14843,-0.0215 z m -2.21485,1.68945 c -0.0217,0.008 -0.0444,0.0151 -0.0644,0.0254 -0.008,0.004 -0.0119,0.029 -0.0156,0.0215 -0.005,-0.009 -0.004,-0.0208 -0.004,-0.0312 -0.0242,0.0193 -0.0503,0.0368 -0.0644,0.0625 -0.0333,0.0612 -0.10035,0.25251 -0.0488,0.20508 0.0672,-0.0622 0.12214,-0.13586 0.17969,-0.20703 0.005,-0.0255 0.0123,-0.0507 0.0176,-0.0762 z m 1.69336,0.11524 c -0.0152,0.0606 -0.0308,0.121 -0.0469,0.18164 0.0174,0.005 0.0332,0.0153 0.0508,0.0195 0.0491,0.012 0.018,-0.10054 0.0293,-0.15039 -0.0177,-0.0242 -0.0172,-0.0282 -0.0332,-0.0508 z m -1.93554,0.52148 c 0.002,-0.003 -0.006,0.002 -0.0293,0.0156 -0.006,0.0184 -0.005,0.019 -0.01,0.0332 0.0205,-0.0241 0.0369,-0.0451 0.0391,-0.0488 z m -0.0742,0.25781 c 8.4e-4,0.0271 -0.002,0.0386 0.002,0.0899 0,0.0183 0.0194,0.0728 0.0156,0.0547 -0.0121,-0.0555 -0.008,-0.0979 -0.0176,-0.14454 z m 0.0137,5.99219 c -0.002,0.0123 8.6e-4,0.0206 -0.002,0.0332 -0.005,0.0261 -0.0122,0.052 -0.0176,0.0781 0.0682,0.0524 0.13947,0.1013 0.20508,0.15625 -0.0272,-0.0686 -0.013,-0.0119 -0.0742,-0.19922 -0.0284,-0.015 -0.0688,-0.0407 -0.11133,-0.0684 z m -2.85156,2.47266 c 0.006,0.0152 0.009,0.025 0.0137,0.0351 0.0134,-0.004 0.0291,-0.0122 0.043,-0.0156 -0.0176,-0.006 -0.0383,-0.0133 -0.0566,-0.0195 z m -1.45118,0.1875 c 0.0594,0.0143 0.096,0.0277 0.12696,0.041 -0.0326,-0.0349 -0.0279,-0.048 -0.12696,-0.041 z" />
    </clipPath>
    <clipPath
       clipPathUnits="userSpaceOnUse"
       id="clipPath1098">
      <path
         id="path1100"
         style="fill:#ff0000;fill-opacity:1;fill-rule:nonzero;stroke:none"
         d="M 180.35938,72.472656 V 204.69336 h 365.06835 v -37.26172 c -0.0158,-0.005 -0.038,-0.01 -0.0488,-0.0137 -0.0406,-0.0154 -0.0778,-0.0383 -0.11524,-0.0606 -0.0494,0.46221 -0.0508,0.51141 -0.20898,1.24024 -0.0661,0.30449 -0.17594,0.85623 -0.48828,1.10742 -0.0137,0.0248 -0.0283,0.0459 -0.043,0.0684 -0.005,0.0584 0.0202,0.11978 0.0137,0.17968 -0.0117,0.10655 -0.0318,0.21242 -0.0469,0.31836 -0.0605,0.27324 -0.0418,0.47154 -0.11132,0.75977 -0.0809,0.32999 -0.0723,0.11543 -0.0723,0.27734 -0.031,0.40425 -0.0832,0.79702 -0.33789,1.16602 -0.0695,0.10076 -0.19595,0.15448 -0.26172,0.25781 -0.0147,0.0234 0.0497,0.0234 0.0762,0.0352 -0.0367,0.26931 -0.13634,0.52059 -0.084,0.79101 -0.004,-0.0287 -0.01,-0.11493 -0.0176,-0.0859 -0.0961,0.39612 -0.13519,0.59116 -0.1543,0.70703 0.0666,-0.0642 -0.0517,0.31378 0,0 -0.0145,0.014 -0.013,-0.0121 -0.0527,0.0664 -0.0155,0.0307 -0.10064,0.26619 -0.0703,0.25977 -0.0605,-0.60098 7.2e-4,-0.10639 -0.0332,0.27148 -0.0144,0.0464 -0.0504,0.15193 -0.0644,0.23047 0.007,0.0776 0.008,0.15455 0.0117,0.23242 0.0662,0.39396 -0.0893,0.73361 -0.24609,1.07422 0.0261,0.0596 0.0182,0.13595 0.0215,0.20313 0.0171,0.30487 -0.13907,0.42136 -0.35352,0.60742 -0.009,0.027 -0.009,0.0525 -0.0273,0.0781 -0.004,0.005 -0.01,3.8e-4 -0.0176,0.002 -0.0144,0.003 -0.0302,0.002 -0.0449,0.004 -0.0297,0.0275 -0.0461,0.0397 -0.0781,0.0723 -0.20122,0.32072 -0.25362,0.44171 -0.3086,0.49219 0.11485,0.0616 0.24954,0.0897 0.36133,0.1582 0.41643,0.25495 0.42747,0.32045 0.69922,0.66016 h -0.002 c 0.35069,0.43835 0.33388,0.82886 0.15039,1.04882 0.3753,0.75556 -0.48574,1.41133 -1.14844,0.55079 -0.0207,-0.0269 -0.0513,-0.0421 -0.0742,-0.0664 -0.22122,0.0849 -0.52422,0.0304 -0.83203,-0.22656 -0.057,0.0106 -0.10263,0.0297 -0.16602,0.0352 -0.35285,0.0302 -0.68995,-0.0432 -1.00781,-0.19336 -0.037,-0.0174 -0.0719,-0.0386 -0.10742,-0.0586 -0.77993,0.25369 -1.20428,-0.29593 -0.88477,-0.78516 -0.16037,-0.0463 -0.32097,-0.097 -0.47461,-0.1621 -0.1278,-0.0542 -0.13383,-0.0715 -0.16211,-0.0957 0.0487,0.0387 -0.0933,0.0508 -0.59179,-0.0488 -0.0847,-0.0169 -0.15217,-0.0807 -0.22852,-0.12109 -0.78877,-0.41673 0.4559,-0.96315 0.81836,-1.11523 -0.008,-5.3e-4 -0.0258,-0.004 -0.0332,-0.004 -0.0295,0.009 0.0292,-0.0122 -0.13281,0.0391 -0.0998,0.0316 -0.1845,0.058 -0.30469,0.0625 -0.0522,0.002 0.0955,-0.0403 0.14648,-0.0527 0.15915,-0.0397 0.22421,-0.0506 0.29102,-0.0488 0.0248,-0.007 0.15315,-0.0506 0.11133,-0.0332 -0.0133,0.006 -0.0597,0.0294 -0.0781,0.0371 0.0533,0.004 0.10248,0.0111 0.22852,0.0234 0.085,0.032 0.17129,0.0619 0.25586,0.0957 -0.0221,-0.47114 0.29529,-0.75507 0.63086,-0.72071 0.0393,0.004 0.0785,0.0193 0.11718,0.0332 0.5423,-0.0997 1.38974,-0.0947 0.7168,-0.44532 -0.0612,-0.032 -0.12432,-0.0636 -0.18555,-0.0957 -0.0733,0.006 -0.2709,0.0673 -0.21875,0.0156 0.0289,-0.0283 0.0684,-0.041 0.11133,-0.0449 0.0429,-0.004 0.089,0.002 0.12891,0.01 0.18965,0.0351 0.31597,0.0719 0.42187,0.11523 -0.002,-0.51919 0.008,-1.03935 0.12891,-1.54687 0.0488,-0.20449 0.11839,-0.40379 0.17773,-0.60547 0.14941,-0.47869 0.41006,-0.90401 0.63867,-1.3457 0.0155,-0.0309 0.0544,-0.12582 0.0469,-0.0918 -0.0117,0.0657 -0.0796,0.12407 -0.0645,0.18945 0.0344,0.16961 0.14674,0.64281 0.20117,0.47852 0.10356,-0.30852 -0.0654,-0.65082 -0.0352,-0.97461 0.007,-0.0822 0.10019,-0.1312 0.14063,-0.20313 0.031,-0.0554 0.0458,-0.11716 0.0723,-0.17578 0.0147,-0.0453 0.0337,-0.0917 0.0488,-0.13672 0.049,-0.13018 0.10014,-0.2427 0.16406,-0.34961 -0.005,-0.11436 -0.0102,-0.24647 -0.01,-0.28906 9.1e-4,-0.0366 -0.004,-0.0758 0.004,-0.11133 0.0536,-0.24207 0.13761,-0.43314 0.26563,-0.61328 -0.0373,-0.21682 0.0257,-0.50701 0.0742,-0.65625 0.0159,-0.049 0.0368,-0.069 0.0586,-0.10351 -0.009,-0.0705 -0.0308,-0.14243 -0.0273,-0.22852 0.0159,-0.2178 0.003,-0.17371 0.2207,-0.51172 0.009,-0.0143 0.0317,-0.0362 0.0488,-0.0566 -6.3e-4,-0.002 -8e-4,-0.004 -0.002,-0.006 0.0443,-0.0526 0.0884,-0.10561 0.13281,-0.1582 0.0904,-0.40067 0.19332,-0.80028 0.24023,-1.20898 0.0714,-0.62092 0.41923,-0.87491 0.73047,-0.81836 0.003,6.1e-4 0.006,0.003 0.01,0.004 0.012,-0.0403 0.0176,-0.0898 0.0312,-0.12695 -0.10033,-0.0577 -0.19849,-0.11989 -0.28516,-0.17188 h 0.004 c -0.51835,-0.31099 -0.11618,-0.57496 0.30664,-0.76562 -0.28835,-0.34755 -0.53277,-0.68855 0.0547,-0.62109 0.082,0.009 0.16899,-0.002 0.24609,0.0273 0.11104,0.0419 0.20899,0.11161 0.31055,0.17383 0.0357,0.016 0.0724,0.03 0.0996,0.0527 0.19253,0.011 0.3851,0.0233 0.57421,0.0606 V 72.472656 Z M 542.65039,177.20898 c 0.0343,-0.0318 0.059,-0.0572 0.0898,-0.084 0.0342,-0.0976 0.0341,-0.19218 0.043,-0.17383 -0.0864,0.12361 -0.1086,0.16932 -0.16797,0.26172 0.0117,-0.001 0.0236,-0.002 0.0352,-0.004 z m 2.09375,-11.8457 c -0.0103,0.004 -0.0289,0.0167 -0.0195,0.0176 0.0239,0.002 0.0483,0.002 0.0723,0.004 -0.0119,-0.007 -0.023,-0.0136 -0.0332,-0.0176 -0.006,-0.002 -0.013,-0.002 -0.0195,-0.004 z m 0.68359,1.67774 c -0.0469,0.006 -0.10894,0.009 -0.14648,0.0176 -10e-4,0.045 0.007,0.0806 0.002,0.12891 -0.006,0.0545 -0.007,0.0542 -0.0117,0.0996 0.058,-0.008 0.10865,-0.007 0.15625,0 z m -0.14843,0.30273 c 0.0175,0.0117 0.0148,0.0167 0.0352,0.0293 0.0125,0.008 0.0277,0.0155 0.0391,0.0234 0.0236,0.006 0.0489,0.008 0.0742,0.01 v -0.041 c -0.0454,-0.005 -0.096,-0.0123 -0.14843,-0.0215 z m -2.21485,1.68945 c -0.0217,0.008 -0.0444,0.0151 -0.0644,0.0254 -0.008,0.004 -0.0119,0.029 -0.0156,0.0215 -0.005,-0.009 -0.004,-0.0208 -0.004,-0.0312 -0.0242,0.0193 -0.0503,0.0368 -0.0644,0.0625 -0.0333,0.0612 -0.10035,0.25251 -0.0488,0.20508 0.0672,-0.0622 0.12214,-0.13586 0.17969,-0.20703 0.005,-0.0255 0.0123,-0.0507 0.0176,-0.0762 z m 1.69336,0.11524 c -0.0152,0.0606 -0.0308,0.121 -0.0469,0.18164 0.0174,0.005 0.0332,0.0153 0.0508,0.0195 0.0491,0.012 0.018,-0.10054 0.0293,-0.15039 -0.0177,-0.0242 -0.0172,-0.0282 -0.0332,-0.0508 z m -1.93554,0.52148 c 0.002,-0.003 -0.006,0.002 -0.0293,0.0156 -0.006,0.0184 -0.005,0.019 -0.01,0.0332 0.0205,-0.0241 0.0369,-0.0451 0.0391,-0.0488 z m -0.0742,0.25781 c 8.4e-4,0.0271 -0.002,0.0386 0.002,0.0899 0,0.0183 0.0194,0.0728 0.0156,0.0547 -0.0121,-0.0555 -0.008,-0.0979 -0.0176,-0.14454 z m 0.0137,5.99219 c -0.002,0.0123 8.6e-4,0.0206 -0.002,0.0332 -0.005,0.0261 -0.0122,0.052 -0.0176,0.0781 0.0682,0.0524 0.13947,0.1013 0.20508,0.15625 -0.0272,-0.0686 -0.013,-0.0119 -0.0742,-0.19922 -0.0284,-0.015 -0.0688,-0.0407 -0.11133,-0.0684 z m -2.85156,2.47266 c 0.006,0.0152 0.009,0.025 0.0137,0.0351 0.0134,-0.004 0.0291,-0.0122 0.043,-0.0156 -0.0176,-0.006 -0.0383,-0.0133 -0.0566,-0.0195 z m -1.45118,0.1875 c 0.0594,0.0143 0.096,0.0277 0.12696,0.041 -0.0326,-0.0349 -0.0279,-0.048 -0.12696,-0.041 z" />
    </clipPath>
    <clipPath
       clipPathUnits="userSpaceOnUse"
       id="clipPath1108">
      <path
         id="path1110"
         style="fill:#ff0000;fill-opacity:1;fill-rule:nonzero;stroke:none"
         d="M 180.32227,167.66602 V 328.24609 H 585.82422 V 167.66602 h -40.5957 c -0.0263,0.21413 -0.058,0.39763 -0.17383,0.93164 -0.0661,0.30449 -0.17594,0.85623 -0.48828,1.10742 -0.0137,0.0248 -0.0283,0.0459 -0.043,0.0684 -0.005,0.0584 0.0202,0.11976 0.0137,0.17968 -0.0117,0.10655 -0.0318,0.21242 -0.0469,0.31836 -0.0605,0.27324 -0.0418,0.47154 -0.11132,0.75977 -0.0809,0.32999 -0.0723,0.11543 -0.0723,0.27734 -0.031,0.40425 -0.0832,0.79702 -0.33789,1.16602 -0.0695,0.10076 -0.19595,0.15448 -0.26172,0.25781 -0.0147,0.0234 0.0497,0.0234 0.0762,0.0352 -0.0367,0.26931 -0.13638,0.52059 -0.084,0.79101 -0.004,-0.0287 -0.01,-0.11487 -0.0176,-0.0859 -0.0961,0.39612 -0.13519,0.59116 -0.1543,0.70703 0.0666,-0.0642 -0.0517,0.31378 0,0 -0.0145,0.014 -0.013,-0.0121 -0.0527,0.0664 -0.0155,0.0307 -0.10062,0.26619 -0.0703,0.25977 -0.0605,-0.60098 7.4e-4,-0.10639 -0.0332,0.27148 -0.0144,0.0464 -0.0504,0.15193 -0.0644,0.23047 0.007,0.0776 0.008,0.15455 0.0117,0.23242 0.0662,0.39396 -0.0893,0.73361 -0.24609,1.07422 0.0261,0.0596 0.0182,0.13595 0.0215,0.20313 0.0171,0.30487 -0.13907,0.42136 -0.35352,0.60742 -0.009,0.027 -0.009,0.0525 -0.0273,0.0781 -0.004,0.005 -0.01,4.6e-4 -0.0176,0.002 -0.0144,0.003 -0.0302,0.002 -0.0449,0.004 -0.0297,0.0275 -0.0461,0.0397 -0.0781,0.0723 -0.20122,0.32072 -0.25362,0.44171 -0.3086,0.49219 0.11485,0.0616 0.24954,0.0897 0.36133,0.1582 0.41643,0.25495 0.42747,0.32045 0.69922,0.66016 h -0.002 c 0.35069,0.43835 0.33388,0.82886 0.15039,1.04882 0.3753,0.75556 -0.48574,1.41133 -1.14844,0.55079 -0.0207,-0.0269 -0.0513,-0.0421 -0.0742,-0.0664 -0.22122,0.0849 -0.52422,0.0304 -0.83203,-0.22656 -0.057,0.0106 -0.10263,0.0297 -0.16602,0.0352 -0.35285,0.0302 -0.68995,-0.0432 -1.00781,-0.19336 -0.037,-0.0174 -0.0719,-0.0386 -0.10742,-0.0586 -0.77993,0.25369 -1.20428,-0.29593 -0.88477,-0.78516 -0.16037,-0.0463 -0.32097,-0.097 -0.47461,-0.1621 -0.1278,-0.0542 -0.13383,-0.0715 -0.16211,-0.0957 0.0487,0.0387 -0.0933,0.0508 -0.59179,-0.0488 -0.0847,-0.0169 -0.15217,-0.0807 -0.22852,-0.12109 -0.78877,-0.41673 0.4559,-0.96315 0.81836,-1.11523 -0.008,-5.3e-4 -0.0258,-0.004 -0.0332,-0.004 -0.0295,0.009 0.0292,-0.0122 -0.13281,0.0391 -0.0998,0.0316 -0.1845,0.058 -0.30469,0.0625 -0.0522,0.002 0.0955,-0.0403 0.14648,-0.0527 0.15915,-0.0397 0.22421,-0.0506 0.29102,-0.0488 0.0248,-0.007 0.15315,-0.0506 0.11133,-0.0332 -0.0133,0.006 -0.0597,0.0294 -0.0781,0.0371 0.0533,0.004 0.10248,0.0111 0.22852,0.0234 0.085,0.032 0.17129,0.0619 0.25586,0.0957 -0.0221,-0.47114 0.29529,-0.75507 0.63086,-0.72071 0.0393,0.004 0.0785,0.0193 0.11718,0.0332 0.5423,-0.0997 1.38974,-0.0947 0.7168,-0.44532 -0.0612,-0.032 -0.12432,-0.0636 -0.18555,-0.0957 -0.0733,0.006 -0.2709,0.0673 -0.21875,0.0156 0.0289,-0.0283 0.0684,-0.041 0.11133,-0.0449 0.0429,-0.004 0.089,0.002 0.12891,0.01 0.18965,0.0351 0.31597,0.0719 0.42187,0.11523 -0.002,-0.51919 0.008,-1.03935 0.12891,-1.54687 0.0488,-0.20449 0.11839,-0.40379 0.17773,-0.60547 0.14941,-0.47869 0.41006,-0.90401 0.63867,-1.3457 0.0155,-0.0309 0.0544,-0.12582 0.0469,-0.0918 -0.0117,0.0657 -0.0796,0.12407 -0.0645,0.18945 0.0344,0.16961 0.14674,0.64281 0.20117,0.47852 0.10356,-0.30852 -0.0654,-0.65082 -0.0352,-0.97461 0.007,-0.0822 0.10019,-0.1312 0.14063,-0.20313 0.031,-0.0554 0.0458,-0.11716 0.0723,-0.17578 0.0147,-0.0453 0.0337,-0.0917 0.0488,-0.13672 0.049,-0.13018 0.10014,-0.2427 0.16406,-0.34961 -0.005,-0.11436 -0.0102,-0.24647 -0.01,-0.28906 9.1e-4,-0.0366 -0.004,-0.0758 0.004,-0.11133 0.0536,-0.24207 0.13761,-0.43314 0.26563,-0.61328 -0.0373,-0.21682 0.0257,-0.50701 0.0742,-0.65625 0.0159,-0.049 0.0368,-0.069 0.0586,-0.10351 -0.009,-0.0705 -0.0308,-0.14243 -0.0273,-0.22852 0.0159,-0.2178 0.003,-0.17371 0.2207,-0.51172 0.009,-0.0143 0.0317,-0.0362 0.0488,-0.0566 -6.3e-4,-0.002 -8e-4,-0.004 -0.002,-0.006 0.0443,-0.0526 0.0884,-0.10561 0.13281,-0.1582 0.0881,-0.39035 0.18576,-0.78003 0.23437,-1.17773 z m 362.32812,9.54296 c 0.0343,-0.0318 0.059,-0.0572 0.0898,-0.084 0.0342,-0.0976 0.0341,-0.19218 0.043,-0.17383 -0.0864,0.12361 -0.1086,0.16932 -0.16797,0.26172 0.0117,-0.001 0.0236,-0.002 0.0352,-0.004 z m 0.41406,-8.17578 c -0.0217,0.008 -0.0444,0.0151 -0.0644,0.0254 -0.008,0.004 -0.0119,0.029 -0.0156,0.0215 -0.005,-0.009 -0.004,-0.0208 -0.004,-0.0312 -0.0242,0.0193 -0.0503,0.0368 -0.0644,0.0625 -0.0333,0.0612 -0.10035,0.25251 -0.0488,0.20508 0.0672,-0.0622 0.12214,-0.13586 0.17969,-0.20703 0.005,-0.0255 0.0123,-0.0507 0.0176,-0.0762 z m 1.69336,0.11524 c -0.0152,0.0606 -0.0308,0.121 -0.0469,0.18164 0.0174,0.005 0.0332,0.0153 0.0508,0.0195 0.0491,0.012 0.018,-0.10054 0.0293,-0.15039 -0.0177,-0.0242 -0.0172,-0.0282 -0.0332,-0.0508 z m -1.93554,0.52148 c 0.002,-0.003 -0.006,0.002 -0.0293,0.0156 -0.006,0.0184 -0.005,0.019 -0.01,0.0332 0.0205,-0.0241 0.0369,-0.0451 0.0391,-0.0488 z m -0.0742,0.25781 c 8.4e-4,0.0271 -0.002,0.0386 0.002,0.0899 0,0.0183 0.0194,0.0728 0.0156,0.0547 -0.0121,-0.0555 -0.008,-0.0979 -0.0176,-0.14454 z m 0.0137,5.99219 c -0.002,0.0123 8.6e-4,0.0206 -0.002,0.0332 -0.005,0.0261 -0.0122,0.052 -0.0176,0.0781 0.0682,0.0524 0.13947,0.1013 0.20508,0.15625 -0.0272,-0.0686 -0.013,-0.0119 -0.0742,-0.19922 -0.0284,-0.015 -0.0688,-0.0407 -0.11133,-0.0684 z m -2.85156,2.47266 c 0.006,0.0152 0.009,0.025 0.0137,0.0351 0.0134,-0.004 0.0291,-0.0122 0.043,-0.0156 -0.0176,-0.006 -0.0383,-0.0133 -0.0566,-0.0195 z m -1.45118,0.1875 c 0.0594,0.0143 0.096,0.0277 0.12696,0.041 -0.0326,-0.0349 -0.0279,-0.048 -0.12696,-0.041 z" />
    </clipPath>
    <clipPath
       clipPathUnits="userSpaceOnUse"
       id="clipPath1118">
      <path
         id="path1120"
         style="fill:#ff0000;fill-opacity:1;fill-rule:nonzero;stroke:none"
         d="M 180.32227,167.66602 V 328.24609 H 585.82422 V 167.66602 h -40.5957 c -0.0263,0.21413 -0.058,0.39763 -0.17383,0.93164 -0.0661,0.30449 -0.17594,0.85623 -0.48828,1.10742 -0.0137,0.0248 -0.0283,0.0459 -0.043,0.0684 -0.005,0.0584 0.0202,0.11976 0.0137,0.17968 -0.0117,0.10655 -0.0318,0.21242 -0.0469,0.31836 -0.0605,0.27324 -0.0418,0.47154 -0.11132,0.75977 -0.0809,0.32999 -0.0723,0.11543 -0.0723,0.27734 -0.031,0.40425 -0.0832,0.79702 -0.33789,1.16602 -0.0695,0.10076 -0.19595,0.15448 -0.26172,0.25781 -0.0147,0.0234 0.0497,0.0234 0.0762,0.0352 -0.0367,0.26931 -0.13638,0.52059 -0.084,0.79101 -0.004,-0.0287 -0.01,-0.11487 -0.0176,-0.0859 -0.0961,0.39612 -0.13519,0.59116 -0.1543,0.70703 0.0666,-0.0642 -0.0517,0.31378 0,0 -0.0145,0.014 -0.013,-0.0121 -0.0527,0.0664 -0.0155,0.0307 -0.10062,0.26619 -0.0703,0.25977 -0.0605,-0.60098 7.4e-4,-0.10639 -0.0332,0.27148 -0.0144,0.0464 -0.0504,0.15193 -0.0644,0.23047 0.007,0.0776 0.008,0.15455 0.0117,0.23242 0.0662,0.39396 -0.0893,0.73361 -0.24609,1.07422 0.0261,0.0596 0.0182,0.13595 0.0215,0.20313 0.0171,0.30487 -0.13907,0.42136 -0.35352,0.60742 -0.009,0.027 -0.009,0.0525 -0.0273,0.0781 -0.004,0.005 -0.01,4.6e-4 -0.0176,0.002 -0.0144,0.003 -0.0302,0.002 -0.0449,0.004 -0.0297,0.0275 -0.0461,0.0397 -0.0781,0.0723 -0.20122,0.32072 -0.25362,0.44171 -0.3086,0.49219 0.11485,0.0616 0.24954,0.0897 0.36133,0.1582 0.41643,0.25495 0.42747,0.32045 0.69922,0.66016 h -0.002 c 0.35069,0.43835 0.33388,0.82886 0.15039,1.04882 0.3753,0.75556 -0.48574,1.41133 -1.14844,0.55079 -0.0207,-0.0269 -0.0513,-0.0421 -0.0742,-0.0664 -0.22122,0.0849 -0.52422,0.0304 -0.83203,-0.22656 -0.057,0.0106 -0.10263,0.0297 -0.16602,0.0352 -0.35285,0.0302 -0.68995,-0.0432 -1.00781,-0.19336 -0.037,-0.0174 -0.0719,-0.0386 -0.10742,-0.0586 -0.77993,0.25369 -1.20428,-0.29593 -0.88477,-0.78516 -0.16037,-0.0463 -0.32097,-0.097 -0.47461,-0.1621 -0.1278,-0.0542 -0.13383,-0.0715 -0.16211,-0.0957 0.0487,0.0387 -0.0933,0.0508 -0.59179,-0.0488 -0.0847,-0.0169 -0.15217,-0.0807 -0.22852,-0.12109 -0.78877,-0.41673 0.4559,-0.96315 0.81836,-1.11523 -0.008,-5.3e-4 -0.0258,-0.004 -0.0332,-0.004 -0.0295,0.009 0.0292,-0.0122 -0.13281,0.0391 -0.0998,0.0316 -0.1845,0.058 -0.30469,0.0625 -0.0522,0.002 0.0955,-0.0403 0.14648,-0.0527 0.15915,-0.0397 0.22421,-0.0506 0.29102,-0.0488 0.0248,-0.007 0.15315,-0.0506 0.11133,-0.0332 -0.0133,0.006 -0.0597,0.0294 -0.0781,0.0371 0.0533,0.004 0.10248,0.0111 0.22852,0.0234 0.085,0.032 0.17129,0.0619 0.25586,0.0957 -0.0221,-0.47114 0.29529,-0.75507 0.63086,-0.72071 0.0393,0.004 0.0785,0.0193 0.11718,0.0332 0.5423,-0.0997 1.38974,-0.0947 0.7168,-0.44532 -0.0612,-0.032 -0.12432,-0.0636 -0.18555,-0.0957 -0.0733,0.006 -0.2709,0.0673 -0.21875,0.0156 0.0289,-0.0283 0.0684,-0.041 0.11133,-0.0449 0.0429,-0.004 0.089,0.002 0.12891,0.01 0.18965,0.0351 0.31597,0.0719 0.42187,0.11523 -0.002,-0.51919 0.008,-1.03935 0.12891,-1.54687 0.0488,-0.20449 0.11839,-0.40379 0.17773,-0.60547 0.14941,-0.47869 0.41006,-0.90401 0.63867,-1.3457 0.0155,-0.0309 0.0544,-0.12582 0.0469,-0.0918 -0.0117,0.0657 -0.0796,0.12407 -0.0645,0.18945 0.0344,0.16961 0.14674,0.64281 0.20117,0.47852 0.10356,-0.30852 -0.0654,-0.65082 -0.0352,-0.97461 0.007,-0.0822 0.10019,-0.1312 0.14063,-0.20313 0.031,-0.0554 0.0458,-0.11716 0.0723,-0.17578 0.0147,-0.0453 0.0337,-0.0917 0.0488,-0.13672 0.049,-0.13018 0.10014,-0.2427 0.16406,-0.34961 -0.005,-0.11436 -0.0102,-0.24647 -0.01,-0.28906 9.1e-4,-0.0366 -0.004,-0.0758 0.004,-0.11133 0.0536,-0.24207 0.13761,-0.43314 0.26563,-0.61328 -0.0373,-0.21682 0.0257,-0.50701 0.0742,-0.65625 0.0159,-0.049 0.0368,-0.069 0.0586,-0.10351 -0.009,-0.0705 -0.0308,-0.14243 -0.0273,-0.22852 0.0159,-0.2178 0.003,-0.17371 0.2207,-0.51172 0.009,-0.0143 0.0317,-0.0362 0.0488,-0.0566 -6.3e-4,-0.002 -8e-4,-0.004 -0.002,-0.006 0.0443,-0.0526 0.0884,-0.10561 0.13281,-0.1582 0.0881,-0.39035 0.18576,-0.78003 0.23437,-1.17773 z m 362.32812,9.54296 c 0.0343,-0.0318 0.059,-0.0572 0.0898,-0.084 0.0342,-0.0976 0.0341,-0.19218 0.043,-0.17383 -0.0864,0.12361 -0.1086,0.16932 -0.16797,0.26172 0.0117,-0.001 0.0236,-0.002 0.0352,-0.004 z m 0.41406,-8.17578 c -0.0217,0.008 -0.0444,0.0151 -0.0644,0.0254 -0.008,0.004 -0.0119,0.029 -0.0156,0.0215 -0.005,-0.009 -0.004,-0.0208 -0.004,-0.0312 -0.0242,0.0193 -0.0503,0.0368 -0.0644,0.0625 -0.0333,0.0612 -0.10035,0.25251 -0.0488,0.20508 0.0672,-0.0622 0.12214,-0.13586 0.17969,-0.20703 0.005,-0.0255 0.0123,-0.0507 0.0176,-0.0762 z m 1.69336,0.11524 c -0.0152,0.0606 -0.0308,0.121 -0.0469,0.18164 0.0174,0.005 0.0332,0.0153 0.0508,0.0195 0.0491,0.012 0.018,-0.10054 0.0293,-0.15039 -0.0177,-0.0242 -0.0172,-0.0282 -0.0332,-0.0508 z m -1.93554,0.52148 c 0.002,-0.003 -0.006,0.002 -0.0293,0.0156 -0.006,0.0184 -0.005,0.019 -0.01,0.0332 0.0205,-0.0241 0.0369,-0.0451 0.0391,-0.0488 z m -0.0742,0.25781 c 8.4e-4,0.0271 -0.002,0.0386 0.002,0.0899 0,0.0183 0.0194,0.0728 0.0156,0.0547 -0.0121,-0.0555 -0.008,-0.0979 -0.0176,-0.14454 z m 0.0137,5.99219 c -0.002,0.0123 8.6e-4,0.0206 -0.002,0.0332 -0.005,0.0261 -0.0122,0.052 -0.0176,0.0781 0.0682,0.0524 0.13947,0.1013 0.20508,0.15625 -0.0272,-0.0686 -0.013,-0.0119 -0.0742,-0.19922 -0.0284,-0.015 -0.0688,-0.0407 -0.11133,-0.0684 z m -2.85156,2.47266 c 0.006,0.0152 0.009,0.025 0.0137,0.0351 0.0134,-0.004 0.0291,-0.0122 0.043,-0.0156 -0.0176,-0.006 -0.0383,-0.0133 -0.0566,-0.0195 z m -1.45118,0.1875 c 0.0594,0.0143 0.096,0.0277 0.12696,0.041 -0.0326,-0.0349 -0.0279,-0.048 -0.12696,-0.041 z" />
    </clipPath>
  </defs>
  <sodipodi:namedview
     id="base"
     pagecolor="#ffffff"
     bordercolor="#666666"
     borderopacity="1.0"
     inkscape:pageopacity="0.0"
     inkscape:pageshadow="2"
     inkscape:zoom="0.7"
     inkscape:cx="287.03704"
     inkscape:cy="261.33691"
     inkscape:document-units="mm"
     inkscape:current-layer="layer1"
     inkscape:document-rotation="0"
     showgrid="false"
     inkscape:window-width="1280"
     inkscape:window-height="961"
     inkscape:window-x="-8"
     inkscape:window-y="-8"
     inkscape:window-maximized="1" />
  <metadata
     id="metadata5">
    <rdf:RDF>
      <cc:Work
         rdf:about="">
        <dc:format>image/svg+xml</dc:format>
        <dc:type
           rdf:resource="http://purl.org/dc/dcmitype/StillImage" />
        <dc:title></dc:title>
      </cc:Work>
    </rdf:RDF>
  </metadata>
  <g
     inkscape:label=" 1"
     inkscape:groupmode="layer"
     id="layer1"
     transform="translate(-16.252983,-82.776787)">
    <path
       style="fill:#f2f2f2;stroke-width:0.714286"
       d=""
       id="path65"
       transform="matrix(0.26458333,0,0,0.26458333,16.252983,82.776787)" />
    <path
       style="fill:#f2f2f2;stroke-width:0.714286"
       d=""
       id="path75"
       transform="matrix(0.26458333,0,0,0.26458333,16.252983,82.776787)" />
    <path
       style="fill:#f2f2f2;stroke-width:0.714286"
       d=""
       id="path77"
       transform="matrix(0.26458333,0,0,0.26458333,16.252983,82.776787)" />
    <path
       style="fill:#f2f2f2;stroke-width:0.714286"
       d=""
       id="path79"
       transform="matrix(0.26458333,0,0,0.26458333,16.252983,82.776787)" />
    <path
       style="fill:#f2f2f2;stroke-width:0.714286"
       d=""
       id="path81"
       transform="matrix(0.26458333,0,0,0.26458333,16.252983,82.776787)" />
    <path
       style="fill:none;stroke:#000000;stroke-width:0.264583px;stroke-linecap:butt;stroke-linejoin:miter;stroke-opacity:1"
       d="m 147.50521,130.2128 v 0"
       id="path119" />
    <path
       style="fill:none;stroke:#000000;stroke-width:0.264583px;stroke-linecap:butt;stroke-linejoin:miter;stroke-opacity:1"
       d="m 147.50521,130.2128 v 0"
       id="path121" />
    <path
       style="fill:none;stroke-width:0.505076"
       d=""
       id="path135"
       transform="matrix(0.26458333,0,0,0.26458333,16.252983,82.776787)" />
    <path
       style="fill:#666666;stroke-width:1.42857"
       d=""
       id="path155"
       transform="matrix(0.26458333,0,0,0.26458333,16.252983,82.776787)" />
    <path
       style="fill:#666666;stroke-width:1.42857"
       d=""
       id="path157"
       transform="matrix(0.26458333,0,0,0.26458333,16.252983,82.776787)" />
    <path
       style="fill:none;stroke:#000000;stroke-width:0.264583px;stroke-linecap:butt;stroke-linejoin:miter;stroke-opacity:1"
       d="M 160.61892,126.99525 Z"
       id="path173"
       clip-path="url(#clipPath564)" />
    <path
       style="fill:#000000;stroke:#000000;stroke-width:0.264583px;stroke-linecap:butt;stroke-linejoin:miter;stroke-opacity:1"
       d="M 153.50559,133.14211 Z"
       id="path1170" />
    <path
       style="display:none;fill:#ffffff;stroke-width:1.42857"
       d="m 180.52057,325.48675 c -5.16525,-2.54456 -12.56919,-11.65564 -13.95336,-17.17062 -1.17208,-4.66995 2.01249,-15.74387 6.42535,-22.34324 2.03336,-3.04086 7.41319,-8.14956 11.95517,-11.35264 4.54198,-3.2031 8.25815,-6.25233 8.25815,-6.77606 0,-1.27013 -14.79988,-7.7892 -22.85715,-10.06816 -3.53571,-1.00007 -13.5,-1.8139 -22.14285,-1.80854 -17.41427,0.0114 -26.55047,1.97222 -46.32115,9.9444 -6.650168,2.68157 -12.293213,4.87557 -12.540104,4.87557 -0.24689,0 1.414287,-3.375 3.691506,-7.5 8.301498,-15.03751 10.861718,-25.71715 10.873408,-45.35714 0.0105,-17.62594 -0.0526,-17.97372 -4.871345,-26.8609 -2.711876,-5.00148 -8.319449,-12.14542 -12.615125,-16.07143 -8.295645,-7.58175 -8.527291,-8.38878 -1.360537,-4.73997 23.643917,12.03785 34.650447,32.24789 33.642437,61.77377 -0.4795,14.04536 -0.38694,14.58819 2.35805,13.82837 25.34855,-7.01643 54.39938,-2.12348 77.18238,12.9996 6.34714,4.21316 7.73601,4.6088 11.94319,3.4022 8.97631,-2.57437 32.2767,-3.24884 53.01729,-1.53468 33.36011,2.75714 69.5126,9.238 117.85714,21.1276 l 21.42857,5.27004 42.85714,0.0456 c 40.117,0.0427 43.69169,-0.16514 55.90973,-3.24978 22.37037,-5.64779 49.48547,-23.12645 56.64669,-36.51502 2.73707,-5.11721 3.14196,-7.9979 3.03848,-21.61821 -0.0963,-12.67746 -0.73754,-17.3023 -3.31804,-23.93155 -3.41568,-8.7748 -13.33606,-22.50815 -16.23864,-22.48007 -0.96387,0.009 -3.77882,3.70575 -6.25543,8.21428 -10.10853,18.40202 -24.81269,29.62982 -38.38941,29.31341 -9.35245,-0.21796 -18.33433,-3.90052 -22.98022,-9.42183 -3.10444,-3.68943 -3.60424,-5.4384 -3.02436,-10.58319 1.97476,-17.51994 24.40278,-31.82535 49.89573,-31.82535 h 9.98359 l -1.01733,-7.5 c -2.45399,-18.09147 -11.97639,-35.10829 -24.99311,-44.66345 -15.13243,-11.10822 -43.92548,-20.693695 -62.16016,-20.693695 -17.24472,0 -50.66894,9.998665 -50.66894,15.157325 0,1.09204 0.59908,1.98553 1.3313,1.98553 2.21992,0 7.51431,8.45704 8.78814,14.03785 3.4732,15.21653 -10.32483,27.98767 -25.00399,23.14311 -6.38907,-2.10858 -10.82974,-7.65862 -10.82974,-13.53524 0,-2.76568 2.23356,-8.24368 5.71428,-14.01481 3.14286,-5.21092 5.71429,-10.06505 5.71429,-10.78694 0,-3.68376 -20.41201,-14.211252 -35.71429,-18.419638 -14.01035,-3.853089 -51.03771,-3.521953 -65.77611,0.588234 -28.6144,7.979874 -63.18259,23.679984 -95.65246,43.443244 -10.60714,6.45619 -24.10714,14.25868 -30,17.33886 -9.7278,5.08471 -11.52259,5.55049 -19.4934,5.05893 -4.82852,-0.29777 -9.81066,-1.3975 -11.07143,-2.44385 -3.33132,-2.76475 -2.93204,-11.78259 0.7277,-16.43518 3.88495,-4.93892 5.00546,-3.82518 1.99959,1.98753 -1.28366,2.48233 -2.13463,6.23849 -1.89105,8.34704 0.39001,3.37607 1.13881,3.88475 6.27273,4.2612 8.84906,0.64886 19.81232,-4.22299 37.88884,-16.83703 33.76869,-23.56425 56.60662,-38.482071 66.28131,-43.295215 25.46778,-12.670184 50.52523,-18.485332 80,-18.565815 29.17193,-0.07966 47.64433,4.672902 65.9968,16.979576 5.15984,3.460052 9.9039,6.291003 10.54236,6.291003 0.63845,0 5.5862,-2.220944 10.995,-4.93543 23.33587,-11.711459 53.71671,-16.388408 75.84531,-11.675932 22.01679,4.688665 45.61064,19.820141 58.01966,37.209803 9.03487,12.66124 12.1723,22.52822 12.1723,38.28094 0,6.9948 0.53737,12.38569 1.19417,11.97977 2.44343,-1.51012 18.31774,7.54944 24.74827,14.12395 24.70683,25.26006 24.29757,68.46652 -0.87903,92.80048 -18.929,17.03796 -46.10839,22.10774 -63.3004,23.69868 -29.36574,2.56268 -80.4512,-0.98466 -111.76301,-7.76078 -22.64319,-4.90015 -74.86337,-14.64484 -92.14286,-17.19457 -37.068,-5.46968 -80.26171,-8.20525 -91.54824,-5.79803 l -2.97681,0.63492 3.29707,9.67524 c 4.20899,12.35126 4.35299,24.51329 0.39365,33.24667 -6.87752,15.1702 -18.77726,20.78795 -31.13669,14.69929 z m 16.91467,-8.95484 c 5.2797,-2.82562 7.04935,-16.37205 4.57406,-35.01386 -1.19775,-9.02043 -3.3657,-9.53014 -12.11608,-2.84873 -12.39399,9.46351 -18.01179,27.76471 -10.61592,34.58366 4.75642,4.38537 13.23106,5.91571 18.15794,3.27893 z M 502.82291,203.69464 c 6.95865,-3.15883 19.688,-14.56227 22.65057,-20.29126 1.10995,-2.14643 2.01811,-5.22024 2.01811,-6.83069 0,-7.13861 -30.68726,-1.09797 -39.57547,7.79024 -6.62534,6.62534 -5.86081,16.89211 1.52416,20.46798 4.39977,2.1304 6.59748,1.9438 13.38263,-1.13627 z m -111.91805,-67.9531 c 5.2022,-5.2022 3.99605,-17.46757 -2.03515,-20.69537 -4.00925,-2.14568 -7.55669,0.97796 -10.82263,9.52973 -3.30432,8.65222 -1.28307,13.35442 5.74041,13.35442 2.71073,0 5.91354,-0.98495 7.11737,-2.18878 z"
       id="path1176"
       transform="matrix(0.26458333,0,0,0.26458333,16.252983,82.776787)"
       sodipodi:nodetypes="sssssscsssssssscsssscssssscssssscsssssssssssssssssssssssssssssssccssscssssssssssssssssssss" />
    <path
       style="fill:#ffffff;stroke-width:1.42857"
       d="m 180.52057,325.48675 c -5.16525,-2.54456 -12.56919,-11.65564 -13.95336,-17.17062 -1.12546,-4.4842 1.92417,-15.5641 6.08447,-22.10602 1.85086,-2.91042 7.23272,-8.0191 11.95969,-11.35266 4.72698,-3.33356 8.59451,-6.48953 8.59451,-7.01326 0,-1.26738 -14.78418,-7.78328 -22.85715,-10.07394 -9.13946,-2.59326 -35.92278,-2.2485 -46.42857,0.59764 -4.71428,1.27716 -14.35272,4.59404 -21.41875,7.37084 -7.066021,2.7768 -12.99602,5.04873 -13.177773,5.04873 -0.181753,0 1.912892,-4.33928 4.654768,-9.64285 11.558045,-22.35658 14.093725,-52.66978 5.759416,-68.85192 -2.203958,-4.27926 -7.73812,-11.5114 -12.298141,-16.07142 -4.560021,-4.56002 -7.989022,-8.29095 -7.620004,-8.29095 1.597595,0 10.333418,5.03264 16.418112,9.45836 8.530232,6.20447 16.382292,17.69764 19.975242,29.23801 2.18084,7.00474 2.79872,12.69109 2.62532,24.16077 -0.20947,13.85652 -0.0244,14.97419 2.42753,14.66135 1.45985,-0.18628 7.38177,-1.07792 13.15981,-1.98145 19.62611,-3.069 44.18731,2.63799 62.40373,14.49997 8.28493,5.3949 8.84589,5.54842 14.28572,3.90938 8.36958,-2.52178 52.11715,-2.02056 73.11256,0.83765 27.0094,3.67695 54.0092,8.91649 87.5496,16.98977 l 30.71429,7.39305 42.14286,0.0594 c 36.05868,0.0509 43.7928,-0.32176 53.57143,-2.58088 24.28035,-5.60938 52.27423,-23.09605 59.53518,-37.18925 5.99072,-11.62773 4.79715,-35.56882 -2.52003,-50.54772 -3.63122,-7.43346 -11.8864,-17.49575 -14.3267,-17.46292 -0.69292,0.009 -3.2862,3.70575 -5.76281,8.21429 -9.59724,17.47124 -24.60537,29.3878 -37.012,29.3878 -10.09094,0 -18.8089,-3.22571 -23.66467,-8.75614 -3.86793,-4.40532 -4.33712,-5.82439 -3.72404,-11.26348 1.98262,-17.58988 24.36832,-31.88513 49.93061,-31.88513 h 10.01173 l -1.00859,-6.7257 c -2.67125,-17.81325 -11.38401,-34.72929 -22.36861,-43.42925 -7.47293,-5.91868 -25.0541,-14.44741 -38.37579,-18.616321 -15.01091,-4.697544 -37.36504,-4.675649 -53.57143,0.05247 -9.40832,2.744829 -21.09098,7.503381 -23.3577,9.514001 -0.2753,0.2442 1.51519,2.95231 3.97886,6.01802 2.46367,3.06571 5.1271,7.91977 5.91873,10.78681 4.18511,15.15723 -10.08889,28.78639 -24.99586,23.86664 -12.11401,-3.99798 -13.86987,-14.94374 -4.6043,-28.70233 2.86172,-4.24941 5.20313,-8.45093 5.20313,-9.3367 0,-3.97321 -19.86629,-14.373596 -35.71429,-18.697128 -13.9966,-3.818447 -51.06297,-3.486964 -65.77611,0.588233 -28.19824,7.810254 -62.81018,23.536745 -95.65246,43.461205 -10.60714,6.43505 -24.10714,14.22025 -30,17.30043 -9.7278,5.08471 -11.52259,5.55049 -19.4934,5.05893 -4.82852,-0.29777 -9.81066,-1.3975 -11.07143,-2.44385 -3.33132,-2.76475 -2.93204,-11.78259 0.7277,-16.43518 3.88495,-4.93892 5.00546,-3.82518 1.99959,1.98753 -1.28366,2.48233 -2.13463,6.23849 -1.89105,8.34704 0.39001,3.37607 1.13881,3.88475 6.27273,4.2612 8.77989,0.64379 19.43114,-4.10237 37.74158,-16.81751 22.68023,-14.05583 42.98067,-31.54344 66.42857,-43.314736 25.46778,-12.670182 50.52523,-18.485332 80,-18.565815 29.17193,-0.07966 47.64433,4.672902 65.9968,16.979576 5.15984,3.460052 9.9039,6.291003 10.54236,6.291003 0.63845,0 5.5862,-2.220944 10.995,-4.93543 23.19408,-11.640304 53.73635,-16.385726 75.54761,-11.738004 27.86686,5.9381 54.4289,25.831516 65.66869,49.182016 3.30405,6.86413 4.046,10.55861 4.53811,22.5972 l 0.5883,14.3915 8.98072,3.91242 c 70.6242,61.24707 12.4227,122.5906 -48.28052,128.12388 -34.72923,2.9768 -73.68988,-0.49932 -130.29136,-11.62481 -55.29088,-10.86789 -71.51631,-13.54033 -103.43725,-17.03693 -24.63299,-2.69828 -57.44274,-3.81497 -61.89467,-2.1066 -1.63754,0.62837 -1.40954,2.48066 1.27485,10.35714 4.18022,12.2655 4.31457,24.45282 0.3656,33.16333 -6.87752,15.1702 -18.77726,20.78795 -31.13669,14.69929 z m 16.91467,-8.95484 c 5.2797,-2.82562 7.04935,-16.37205 4.57406,-35.01386 -1.18811,-8.94779 -3.37263,-9.52486 -11.7737,-3.11016 -12.57071,9.59844 -18.36331,28.0177 -10.9583,34.84509 4.75642,4.38537 13.23106,5.91571 18.15794,3.27893 z M 502.49159,203.824 c 6.96919,-3.18927 20.07127,-14.79211 22.91653,-20.29423 1.14591,-2.21594 2.08347,-5.34663 2.08347,-6.95708 0,-2.58988 -0.89014,-2.92808 -7.70666,-2.92808 -17.20132,0 -36.57905,10.08114 -36.57905,19.03003 0,7.53311 4.98003,13.5025 11.42857,13.69905 1.17857,0.0359 4.71428,-1.11144 7.85714,-2.54969 z M 391.19875,134.92259 c 4.0071,-4.42869 3.52436,-15.16595 -0.84077,-18.70062 -2.87266,-2.32613 -3.64789,-2.40823 -6.28587,-0.66564 -1.655,1.09325 -4.24555,4.94935 -5.75676,8.56912 -2.2394,5.36394 -2.44327,7.2495 -1.10206,10.19313 2.1494,4.71744 9.95846,5.0547 13.98546,0.60401 z"
       id="path1178"
       transform="matrix(0.26458333,0,0,0.26458333,16.252983,82.776787)"
       sodipodi:nodetypes="sssssssssssssssssssssscsssscssssscssssssssssssssssssssccssssssscccsssssssssssssssssssssssss" />
    <path
       style="fill:#ffffff;stroke-width:1.42857"
       d="m 180.52057,325.48675 c -5.16525,-2.54456 -12.56919,-11.65564 -13.95336,-17.17062 -1.12546,-4.4842 1.92417,-15.5641 6.08447,-22.10602 1.85086,-2.91042 7.23272,-8.0191 11.95969,-11.35266 4.72698,-3.33356 8.59451,-6.48953 8.59451,-7.01326 0,-1.29374 -14.92971,-7.83753 -22.85715,-10.01843 -8.34816,-2.29664 -32.77938,-2.35731 -43.0216,-0.10685 -4.41189,0.9694 -14.69595,4.3064 -22.85347,7.41555 -8.157524,3.10915 -14.964605,5.653 -15.126848,5.653 -0.162243,0 2.248789,-5.30357 5.357847,-11.78571 7.390861,-15.40936 10.342851,-29.57347 9.601901,-46.07143 -0.71364,-15.89006 -4.679778,-24.52195 -16.86688,-36.70905 -4.560021,-4.56002 -7.989022,-8.29095 -7.620004,-8.29095 1.597595,0 10.333418,5.03264 16.418112,9.45836 15.192992,11.05064 22.682372,28.63486 22.682372,53.25563 v 15.31655 l 11.78572,-2.05684 c 21.61017,-3.77141 49.35146,2.242 67.30167,14.5888 6.50558,4.47479 7.31826,4.6813 12.85714,3.26714 9.15077,-2.3363 53.42129,-1.76037 73.36301,0.9544 26.50982,3.60893 53.64115,8.83949 87.5496,16.87839 l 30.71429,7.28163 33.7005,0.71345 c 52.12557,1.10353 69.55233,-1.92371 93.87769,-16.30774 16.00188,-9.4622 22.07901,-14.60866 26.83647,-22.72663 6.7782,-11.56613 6.00338,-36.01141 -1.63637,-51.62649 -3.67376,-7.5089 -11.926,-17.58408 -14.37555,-17.55113 -0.69292,0.009 -3.2862,3.70575 -5.76281,8.21429 -9.59724,17.47124 -24.60537,29.3878 -37.012,29.3878 -10.09094,0 -18.8089,-3.22571 -23.66467,-8.75614 -3.86793,-4.40532 -4.33712,-5.82439 -3.72404,-11.26348 1.97645,-17.53519 24.3748,-31.88513 49.76841,-31.88513 11.31516,0 11.0846,0.41756 7.6987,-13.94324 -2.89004,-12.25771 -9.24746,-24.29348 -17.09961,-32.37276 -7.45426,-7.66986 -29.45546,-19.00759 -45.03529,-23.207725 -12.56941,-3.388567 -34.66753,-3.323493 -47.85714,0.140928 -8.65916,2.274439 -24.43085,8.337457 -26.14363,10.050237 -0.31447,0.31447 1.44397,3.08007 3.90764,6.14578 2.46367,3.06571 5.1271,7.91978 5.91873,10.78681 4.18511,15.15723 -10.08889,28.78639 -24.99586,23.86664 -12.15686,-4.01212 -13.80944,-14.71268 -4.51591,-29.2408 2.91087,-4.55044 5.01063,-9.00208 4.66613,-9.89255 -1.08612,-2.80737 -18.46032,-12.291958 -27.86906,-15.213738 -18.26447,-5.671833 -40.91994,-7.25322 -60.25376,-4.205807 -29.06168,4.580728 -76.72176,25.427265 -119.54542,52.289205 -20.64189,12.94801 -28.17986,16.19492 -37.63671,16.21163 -10.49418,0.0186 -14.24644,-2.61195 -14.24644,-9.98738 0,-3.97011 1.04601,-6.6965 3.66853,-9.56186 2.01768,-2.20452 3.34517,-3.04394 2.94996,-1.86537 -5.54095,16.52399 -5.16756,17.73701 5.18956,16.85916 83.98222,-29.21407 164.87418,-117.286109 250.64444,-60.078794 l 7.45247,5.057656 10.57628,-5.15722 c 24.69366,-12.041153 54.21759,-16.601672 76.61136,-11.83405 27.53363,5.861896 54.0138,25.790408 65.22929,49.090398 3.30405,6.86413 4.046,10.55861 4.53811,22.5972 l 0.5883,14.3915 9.06939,3.95105 C 676.54124,305.74966 448.06644,300.46836 378.92016,287.12815 322.7179,276.10792 301.68662,272.61631 271.94995,269.36898 c -28.24283,-3.0842 -60.84248,-3.82206 -62.33271,-1.41082 -0.49506,0.80102 0.43129,5.30357 2.05855,10.00569 5.10266,14.74454 3.66601,29.63737 -3.83268,39.73096 -7.25915,9.77117 -17.42177,12.66938 -27.32254,7.79194 z m 18.31991,-10.33389 c 3.79875,-3.79875 4.92387,-11.15495 3.84763,-25.15648 -1.43166,-18.62533 -2.26098,-19.3703 -12.6946,-11.40365 -11.51686,8.79379 -17.97897,28.08809 -11.40112,34.04096 6.15735,5.57233 15.97364,6.79362 20.24809,2.51917 z M 502.49159,203.83959 c 12.71183,-5.78256 27.53822,-23.50376 24.19294,-28.91653 -1.80454,-2.9198 -19.11594,-0.68576 -28.97658,3.73943 -14.81117,6.64686 -18.61836,15.37133 -10.32624,23.66343 4.8397,4.83971 7.2643,5.0826 15.10988,1.51367 z M 390.73031,135.43032 c 3.63445,-4.03297 4.31131,-9.47442 1.89718,-15.25222 -1.89651,-4.53901 -2.78406,-5.23546 -6.17537,-4.84575 -3.0596,0.35158 -4.6917,1.90507 -7.17481,6.82924 -1.76786,3.50577 -3.21429,7.47771 -3.21429,8.82653 0,6.28499 10.21777,9.37959 14.66729,4.4422 z"
       id="path1180"
       transform="matrix(0.26458333,0,0,0.26458333,16.252983,82.776787)"
       sodipodi:nodetypes="ssssssssssssssscssssscsssscsssssssssssssssssscssccccsssscccsssssssssssssssssssss" />
    <path
       style="fill:none;stroke:#000000;stroke-width:0.264583px;stroke-linecap:butt;stroke-linejoin:miter;stroke-opacity:1"
       d="m 144.4814,158.27753 c 0,0 -12.75669,1.03943 -19.37128,0.0945"
       id="path1186" />
    <path
       style="fill:#ffffff;stroke-width:1.01015;fill-opacity:1"
       d="m 183.9139,327.30221 c -8.06468,-2.878 -16.08856,-11.798 -17.53148,-19.48944 -0.69915,-3.72677 1.69063,-13.65674 4.68701,-19.47542 2.15818,-4.19096 8.29723,-10.19303 16.54557,-16.17637 l 5.9719,-4.332 -5.46683,-2.84671 c -3.00675,-1.5657 -9.10336,-4.09311 -13.54803,-5.61647 -7.58439,-2.59948 -9.16804,-2.77166 -25.75889,-2.80056 -20.11103,-0.0351 -23.11292,0.58054 -46.56556,9.54869 -7.26463,2.77795 -13.32705,5.05082 -13.472047,5.05082 -0.144998,0 2.103965,-4.72312 4.997697,-10.49583 8.18419,-16.32664 10.02391,-24.21248 10.04147,-43.04225 0.013,-13.8874 -0.24027,-16.28542 -2.24005,-21.21321 -3.020081,-7.44196 -11.070701,-17.9403 -18.549782,-24.18967 -6.942729,-5.80121 -6.415382,-6.39741 1.931642,-2.18384 24.22856,12.23054 35.39007,32.57103 34.30781,62.52182 -0.24664,6.82535 -0.17665,12.57188 0.15552,12.77006 0.33217,0.19818 3.55865,-0.26855 7.16994,-1.03718 9.15012,-1.9475 28.12621,-1.88172 37.87178,0.13128 13.15235,2.7167 22.39754,6.59486 34.06023,14.28754 6.43,4.24123 6.97832,4.41604 10.70427,3.41275 6.64225,-1.78857 28.39562,-3.16406 40.09726,-2.53539 96.03708,0.98755 212.16757,46.24586 285.07078,9.18835 3.74839,-2.32285 7.0381,-4.57363 9.90027,-6.78139 6.57447,-5.07127 10.89311,-9.91551 13.33332,-14.88468 2.54804,-5.18875 3.92716,-5.90469 4.23455,-17.30333 0.39164,-14.52294 -1.116,-22.85507 -5.82251,-32.1786 -2.76509,-5.47763 -13.5158,-18.39031 -15.22822,-18.39031 -0.41154,0 -2.02449,2.38649 -3.58432,5.3033 -7.58418,14.18198 -17.36862,24.73168 -27.59545,29.75377 -4.69738,2.30675 -7.04442,2.81233 -12.82105,2.76182 -18.41575,-0.16104 -29.44886,-10.17312 -25.88682,-23.49121 4.41873,-16.52113 24.98957,-28.46981 49.0136,-28.46981 h 9.70318 v -3.87903 c 0,-6.19739 -3.70912,-19.2252 -7.81116,-27.4357 -7.87183,-15.75599 -23.80848,-27.41272 -49.00426,-35.843749 -15.38478,-5.148071 -28.11894,-6.426403 -42.68461,-4.284941 -16.05617,2.360596 -31.18429,8.79984 -35.91643,11.58404 -0.61896,0.36417 2.83445,3.41174 4.22926,5.34405 3.45964,4.79282 3.85972,10.56206 3.88579,17.42466 0.0278,7.31478 -1.83298,11.86257 -6.18408,15.1142 -12.53763,9.36952 -30.19452,3.60171 -30.13326,-9.84334 0.0213,-4.6829 1.88956,-10.21395 7.00963,-17.81682 1.99631,-2.96434 4.07608,-6.96247 4.07608,-6.96247 -81.17055,-77.335713 -172.83709,54.75965 -247.2385,48.09791 -3.63224,-0.37213 -7.44699,-1.12772 -8.47723,-1.67909 -6.00839,-3.21559 -6.14755,-12.19138 -0.29175,-18.81852 3.95219,-4.47278 4.54906,-2.89574 1.47123,3.88721 -2.28309,5.03146 -2.58973,9.008 -0.83031,10.76742 1.84418,1.84418 9.90314,1.44965 16.45853,-0.80573 C 226.06403,109.0794 296.10755,36.998381 378.72238,90.889744 l 8.68934,5.781688 10.75786,-5.147696 c 21.1106,-10.10155 35.62587,-13.601208 56.21471,-13.553467 11.79883,0.02736 15.75251,0.454565 23.8609,2.578231 29.46727,7.71777 57.4895,29.66289 63.98442,54.54198 1.7699,6.7797 2.56334,9.5013 2.56334,19.16763 l 0.14694,11.74089 6.67159,2.48061 c 15.65279,5.81997 29.81514,21.47436 35.24806,41.23691 2.46902,8.9812 1.03344,28.86972 -3.16751,36.29921 -63.57601,112.43575 -253.39098,21.50666 -354.75542,20.66613 -10.10157,-0.0176 -18.71481,0.31632 -19.14055,0.74205 -0.42573,0.42572 -0.20932,2.69165 0.48091,5.03536 0.69024,2.34373 2.00125,6.76145 2.91338,9.81716 0.96838,3.24418 1.66657,9.17537 1.67804,14.25501 0.0176,7.79021 -0.32258,9.39428 -3.25538,15.35165 -3.75863,7.63484 -10.20436,13.89475 -16.13763,15.6724 -4.95649,1.485 -6.80383,1.44453 -11.56139,-0.25328 z m 12.63587,-10.75247 c 3.33388,-1.51903 4.78883,-4.26637 5.89416,-11.1299 0.91186,-5.66214 -0.26577,-25.84752 -1.73067,-29.66501 -0.90623,-2.3616 -3.58012,-1.88845 -8.77549,1.55281 -12.61679,8.35702 -20.02323,27.31451 -13.57766,34.75333 3.91486,4.51813 13.1327,6.79286 18.18966,4.48877 z M 501.91522,204.03225 c 4.74384,-1.9821 14.61466,-9.6778 19.03113,-14.83745 1.97592,-2.30843 4.36994,-6.23258 5.32001,-8.72033 1.65857,-4.34289 1.6519,-4.57841 -0.16759,-5.90885 0,0 -3.3844,-0.12297 -4.89608,-0.12297 -6.32789,0 -18.82336,1.98344 -25.60917,5.3227 -10.22928,5.03377 -13.85111,10.76587 -11.43265,18.09391 2.32641,7.04906 9.60272,9.57896 17.75435,6.17299 z m -111.2736,-68.53811 c 2.92764,-2.92765 4.03827,-8.59627 2.67567,-13.65658 -2.45125,-9.10324 -8.68075,-9.41301 -13.32507,-0.66261 -3.97067,7.48116 -4.39453,10.69108 -1.84048,13.93803 2.84819,3.62089 9.06055,3.81048 12.48988,0.38116 z"
       id="path1188"
       transform="matrix(0.26458333,0,0,0.26458333,16.252983,82.776787)"
       sodipodi:nodetypes="sssscsscssscsssssssssccsssssssssscssssssssssccsssscccssssscssscsssssssssssssssssssssssssss" />
  </g>
  <rect
     style="fill:#ff0000;fill-opacity:1;fill-rule:nonzero;stroke:none"
     id="rect558"
     width="0"
     height="0"
     x="545.63501"
     y="167.12489"
     transform="scale(0.26458333)"
     clip-path="url(#clipPath560)" />
</svg>
